<svg width="1921" height="595" viewBox="0 0 1921 595" fill="none" xmlns="http://www.w3.org/2000/svg">
<g clip-path="url(#clip0_1_224)">
<g clip-path="url(#clip1_1_224)">
<mask id="mask0_1_224" style="mask-type:luminance" maskUnits="userSpaceOnUse" x="0" y="0" width="1921" height="673">
<path d="M0.5 5.58002C0.5 2.92906 2.64904 0.780029 5.3 0.780029H1915.7C1918.35 0.780029 1920.5 2.92907 1920.5 5.58003V672.78H0.5V5.58002Z" fill="white"/>
</mask>
<g mask="url(#mask0_1_224)">
<path d="M1920.5 0.780029H0.5V672.78H1920.5V0.780029Z" fill="white"/>
<path d="M0.5 283.98L36.02 280.14C71.54 276.3 142.58 268.62 213.62 264.78C284.66 260.94 355.7 260.94 426.932 272.172C498.068 283.308 569.492 305.772 640.628 311.532C711.86 317.292 782.9 306.348 853.94 311.532C924.98 316.62 996.02 337.74 1067.06 353.292C1138.1 368.748 1209.14 378.732 1280.37 358.86C1351.51 338.988 1422.93 289.452 1494.07 269.58C1565.3 249.708 1636.34 259.692 1707.38 259.308C1778.42 259.02 1849.46 248.46 1884.98 243.18L1920.5 237.9V673.74H1884.98C1849.46 673.74 1778.42 673.74 1707.38 673.74C1636.34 673.74 1565.3 673.74 1494.07 673.74C1422.93 673.74 1351.51 673.74 1280.37 673.74C1209.14 673.74 1138.1 673.74 1067.06 673.74C996.02 673.74 924.98 673.74 853.94 673.74C782.9 673.74 711.86 673.74 640.628 673.74C569.492 673.74 498.068 673.74 426.932 673.74C355.7 673.74 284.66 673.74 213.62 673.74C142.58 673.74 71.54 673.74 36.02 673.74H0.5V283.98Z" fill="#FCFCFC"/>
<path d="M0.5 383.82L36.02 378.732C71.54 373.548 142.58 363.372 213.62 377.772C284.66 392.172 355.7 431.148 426.932 448.62C498.068 466.092 569.492 461.868 640.628 444.012C711.86 426.06 782.9 394.38 853.94 382.572C924.98 370.668 996.02 378.732 1067.06 386.412C1138.1 394.092 1209.14 401.388 1280.37 392.652C1351.51 383.82 1422.93 358.86 1494.07 364.332C1565.3 369.708 1636.34 405.612 1707.38 418.188C1778.42 430.86 1849.46 420.3 1884.98 415.02L1920.5 409.74V673.74H1884.98C1849.46 673.74 1778.42 673.74 1707.38 673.74C1636.34 673.74 1565.3 673.74 1494.07 673.74C1422.93 673.74 1351.51 673.74 1280.37 673.74C1209.14 673.74 1138.1 673.74 1067.06 673.74C996.02 673.74 924.98 673.74 853.94 673.74C782.9 673.74 711.86 673.74 640.628 673.74C569.492 673.74 498.068 673.74 426.932 673.74C355.7 673.74 284.66 673.74 213.62 673.74C142.58 673.74 71.54 673.74 36.02 673.74H0.5V383.82Z" fill="#F5EEE0" fill-opacity="0.22"/>
<path d="M0.5 505.74L36.02 498.54C71.54 491.34 142.58 476.94 213.62 468.972C284.66 460.908 355.7 459.372 426.932 467.628C498.068 475.98 569.492 494.22 640.628 505.74C711.86 517.26 782.9 522.06 853.94 521.58C924.98 521.1 996.02 515.34 1067.06 499.212C1138.1 482.988 1209.14 456.492 1280.37 449.1C1351.51 441.708 1422.93 453.612 1494.07 456.972C1565.3 460.332 1636.34 455.148 1707.38 446.028C1778.42 436.908 1849.46 423.852 1884.98 417.228L1920.5 410.7V673.74H1884.98C1849.46 673.74 1778.42 673.74 1707.38 673.74C1636.34 673.74 1565.3 673.74 1494.07 673.74C1422.93 673.74 1351.51 673.74 1280.37 673.74C1209.14 673.74 1138.1 673.74 1067.06 673.74C996.02 673.74 924.98 673.74 853.94 673.74C782.9 673.74 711.86 673.74 640.628 673.74C569.492 673.74 498.068 673.74 426.932 673.74C355.7 673.74 284.66 673.74 213.62 673.74C142.58 673.74 71.54 673.74 36.02 673.74H0.5V505.74Z" fill="#F5EDDE" fill-opacity="0.48"/>
<path d="M0.5 565.26L36.02 564.78C71.54 564.3 142.58 563.34 213.62 559.212C284.66 554.988 355.7 547.692 426.932 548.652C498.068 549.612 569.492 558.828 640.628 562.86C711.86 566.892 782.9 565.548 853.94 565.452C924.98 565.26 996.02 566.22 1067.06 561.708C1138.1 557.292 1209.14 547.308 1280.37 541.932C1351.51 536.46 1422.93 535.5 1494.07 531.852C1565.3 528.108 1636.34 521.772 1707.38 520.428C1778.42 519.18 1849.46 523.02 1884.98 524.94L1920.5 526.86V673.74H1884.98C1849.46 673.74 1778.42 673.74 1707.38 673.74C1636.34 673.74 1565.3 673.74 1494.07 673.74C1422.93 673.74 1351.51 673.74 1280.37 673.74C1209.14 673.74 1138.1 673.74 1067.06 673.74C996.02 673.74 924.98 673.74 853.94 673.74C782.9 673.74 711.86 673.74 640.628 673.74C569.492 673.74 498.068 673.74 426.932 673.74C355.7 673.74 284.66 673.74 213.62 673.74C142.58 673.74 71.54 673.74 36.02 673.74H0.5V565.26Z" fill="#F5EDDE"/>
</g>
</g>
</g>
<defs>
<clipPath id="clip0_1_224">
<rect width="1920" height="594.22" fill="white" transform="translate(0.5 0.780029)"/>
</clipPath>
<clipPath id="clip1_1_224">
<rect width="1920" height="672" fill="white" transform="translate(0.5 0.780029)"/>
</clipPath>
</defs>
</svg>
