<svg width="1921" height="523" viewBox="0 0 1921 523" fill="none" xmlns="http://www.w3.org/2000/svg">
<g clip-path="url(#clip0_1_90)">
<g clip-path="url(#clip1_1_90)">
<mask id="mask0_1_90" style="mask-type:luminance" maskUnits="userSpaceOnUse" x="0" y="0" width="1921" height="577">
<path d="M1920.5 0.22998H0.5V576.23H1920.5V0.22998Z" fill="white"/>
</mask>
<g mask="url(#mask0_1_90)">
<path d="M1920.5 0.22998H0.5V576.23H1920.5V0.22998Z" fill="white"/>
<path d="M1920.5 576.23C1852.53 522.662 1784.66 469.094 1705.94 444.162C1627.32 419.311 1537.94 423.097 1464.31 391.251C1390.77 359.325 1332.98 291.769 1299.67 220.674C1266.36 149.578 1257.43 74.8632 1248.5 0.22998H1920.5V576.23Z" fill="#F8F8F8"/>
<path d="M1920.5 288.23C1886.52 261.405 1852.53 234.662 1813.27 222.237C1773.91 209.811 1729.17 211.705 1692.4 195.741C1655.64 179.778 1626.74 146.041 1610.04 110.41C1593.43 74.8632 1588.92 37.5877 1584.5 0.22998H1920.5V288.23Z" fill="#F2F2F2"/>
<path d="M0.5 0.22998C77.108 27.1374 153.812 53.9625 242.228 76.0151C330.644 97.9858 430.868 115.183 475.7 168.915C520.532 222.649 509.972 312.998 533.588 386.973C557.108 460.947 614.804 518.63 672.5 576.23H0.5V0.22998Z" fill="#F8F8F8"/>
</g>
</g>
</g>
<defs>
<clipPath id="clip0_1_90">
<rect width="1920" height="522.22" fill="white" transform="translate(0.5 0.22998)"/>
</clipPath>
<clipPath id="clip1_1_90">
<rect width="1920" height="576" fill="white" transform="translate(0.5 0.22998)"/>
</clipPath>
</defs>
</svg>
