<svg width="155" height="38" viewBox="0 0 155 38" fill="none" xmlns="http://www.w3.org/2000/svg">
<g clip-path="url(#clip0_1_368)">
<g clip-path="url(#clip1_1_368)">
<g clip-path="url(#clip2_1_368)">
<path d="M0.61354 37.5551C5.57523 37.4995 10.3184 35.5058 13.8298 31.9998C17.3412 28.4939 19.3424 23.7538 19.4057 18.7922C19.3621 13.8259 17.3716 9.07501 13.862 5.5609C10.3525 2.04678 5.60416 0.050061 0.637926 0C0.470473 0 0.446086 0.256871 0.61354 0.260122C5.50762 0.314503 10.1863 2.28106 13.6496 5.73948C17.1129 9.1979 19.086 13.8738 19.1472 18.7678C19.1049 23.6659 17.142 28.3518 13.6806 31.8177C10.2193 35.2836 5.53599 37.2527 0.637926 37.3015C0.47535 37.3015 0.446086 37.5616 0.61354 37.56" fill="white"/>
<path d="M47.18 37.3015C40.7003 37.0059 34.3665 35.2792 28.6333 32.2454C23.491 29.7108 16.4287 25.2709 16.2986 18.7922C16.1735 12.4761 23.4065 8.01176 28.2513 5.50971C34.0705 2.33956 40.5383 0.543815 47.1589 0.260122C47.3215 0.260122 47.3507 0 47.1833 0C40.6691 0.296812 34.3012 2.03063 28.5358 5.07726C23.7641 7.42811 17.4806 11.2877 16.2596 16.9372C15.0387 22.5867 19.8022 27.0397 24.0438 29.9027C29.785 33.6726 36.268 36.1673 43.0554 37.2186C44.4128 37.4346 45.7845 37.5471 47.1589 37.5551C47.3215 37.5551 47.3507 37.2983 47.1833 37.2966" fill="white"/>
<path d="M47.18 37.3015C41.1204 37.0485 35.2185 35.295 30.0038 32.1982C25.1103 29.4507 19.503 24.9099 19.386 18.7922C19.2722 12.8435 25.0013 8.32391 29.6006 5.5975C34.8968 2.33771 40.9445 0.499347 47.1589 0.260122C47.3214 0.260122 47.3507 0 47.1833 0C40.7753 0.269442 34.5466 2.19518 29.1048 5.58937C24.4014 8.38081 19.2429 12.8549 19.1307 18.7678C19.0202 24.5133 24.2974 28.9662 28.7081 31.73C34.2238 35.293 40.5972 37.3051 47.1589 37.5551C47.3214 37.5551 47.3507 37.2983 47.1833 37.2966" fill="white"/>
<path d="M47.18 37.3015C41.6022 37.1035 36.1901 35.3543 31.5516 32.2503C26.9198 29.2784 22.5822 24.5864 22.4765 18.7922C22.3757 13.3085 26.6109 8.79051 30.7891 5.82512C35.5699 2.38169 41.2699 0.44395 47.1589 0.26013C47.3215 0.26013 47.3507 -0.00161822 47.1833 7.54219e-06C41.3885 0.20734 35.7742 2.069 31.0037 5.36502C26.4629 8.37756 22.3221 13.0581 22.2245 18.7694C22.127 24.1735 26.1735 28.6768 30.2607 31.6764C35.1618 35.314 41.0583 37.3653 47.1589 37.5551C47.3215 37.5551 47.3507 37.2983 47.1833 37.2966" fill="white"/>
<path d="M47.18 37.3015C37.1864 37.1812 25.7394 29.5986 25.5574 18.7922C25.3753 7.98576 37.4141 0.377185 47.1589 0.26013C47.3215 0.26013 47.3507 -0.00161822 47.1833 7.54219e-06C37.0401 0.123566 25.481 7.8183 25.3005 18.7678C25.12 29.7173 37.2759 37.4413 47.1589 37.5551C47.3215 37.5551 47.3507 37.2983 47.1833 37.2966" fill="white"/>
<path d="M47.18 37.3015C42.2858 37.2467 37.6071 35.2798 34.1439 31.8211C30.6806 28.3624 28.7076 23.6864 28.6463 18.7922C28.6891 13.8938 30.6527 9.20786 34.1147 5.74221C37.5767 2.27656 42.2605 0.308077 47.1589 0.26013C47.3215 0.26013 47.3507 -0.00161822 47.1833 7.54219e-06C42.22 0.0543969 37.475 2.04831 33.9627 5.55547C30.4504 9.06262 28.4495 13.8047 28.3878 18.7678C28.4319 23.7341 30.4232 28.4847 33.9335 31.998C37.4438 35.5114 42.1927 37.5068 47.1589 37.5551C47.3215 37.5551 47.3507 37.2983 47.1833 37.2966" fill="white"/>
<path d="M0.613283 37.5551C7.12748 37.2599 13.4956 35.5266 19.2608 32.4795C24.0324 30.127 30.316 26.2675 31.5353 20.6114C32.7676 14.9213 27.97 10.4325 23.7072 7.55167C17.9644 3.77739 11.4666 1.30277 4.66793 0.300766C3.42094 0.112015 2.16219 0.0115095 0.901043 0C0.735215 0 0.709203 0.258496 0.876656 0.260122C7.24039 0.547872 13.4617 2.2395 19.095 5.21382C24.2811 7.76464 31.3613 12.2436 31.493 18.7678C31.6182 25.0855 24.3868 29.5499 19.542 32.0519C13.7238 35.2216 7.25718 37.0173 0.637669 37.3015C0.475093 37.3015 0.445829 37.5616 0.613283 37.56" fill="white"/>
<path d="M0.61354 37.5551C7.02115 37.2867 13.2496 35.3609 18.6904 31.9657C23.3954 29.1759 28.5523 24.7018 28.6645 18.7873C28.775 13.0435 23.4994 8.59053 19.0887 5.82673C13.5729 2.26361 7.19969 0.250951 0.637926 0C0.470473 0 0.446086 0.258496 0.61354 0.260122C6.6733 0.513337 12.5753 2.26747 17.7897 5.36502C22.6833 8.11418 28.2889 12.6533 28.406 18.7711C28.5198 24.7181 22.7922 29.241 18.1945 31.9674C12.8985 35.2276 6.8508 37.066 0.6363 37.3048C0.473724 37.3048 0.44446 37.5649 0.611914 37.5632" fill="white"/>
<path d="M0.61354 37.5551C6.40798 37.3489 12.0221 35.4871 16.7915 32.1901C21.3323 29.1759 25.4747 24.497 25.5804 18.7841C25.6779 13.3817 21.6298 8.87666 17.5442 5.87876C12.6405 2.24024 6.74115 0.188866 0.637926 0C0.470473 0 0.446086 0.258496 0.61354 0.260122C6.19258 0.456766 11.6061 2.2061 16.2453 5.31137C20.8754 8.29139 25.2113 12.9736 25.3203 18.7678C25.4211 24.2531 21.1859 28.7711 17.0077 31.7365C12.2262 35.1786 6.52662 37.1162 0.637926 37.3015C0.47535 37.3015 0.446086 37.5616 0.61354 37.56" fill="white"/>
<path d="M0.61354 37.5551C10.7534 37.4332 22.3126 29.7385 22.4931 18.7873C22.6735 7.83618 10.5177 0.118681 0.637926 0C0.470473 0 0.446086 0.256871 0.61354 0.260122C10.6071 0.380428 22.0541 7.96624 22.2329 18.7678C22.4118 29.5694 10.3795 37.1828 0.637926 37.3015C0.47535 37.3015 0.446086 37.5616 0.61354 37.56" fill="white"/>
<path d="M57.2386 21.6991C57.2386 24.5296 57.2386 26.8593 57.3865 28.0965C57.4743 28.9517 57.6515 29.6003 58.536 29.7223C58.9759 29.784 59.4187 29.8231 59.8626 29.8393C60.0382 29.8393 60.0983 29.9287 60.0983 30.0165C60.0983 30.1645 59.9504 30.2523 59.6268 30.2523C58.0011 30.2523 56.1477 30.1645 55.9998 30.1645C55.8518 30.1645 53.9952 30.2523 53.1108 30.2523C52.7856 30.2523 52.6393 30.1937 52.6393 30.0165C52.6393 29.9287 52.6978 29.8393 52.8751 29.8393C53.173 29.8292 53.4692 29.79 53.7595 29.7223C54.3496 29.6036 54.4959 28.9549 54.6146 28.0965C54.7626 26.8593 54.7626 24.5296 54.7626 21.6991V16.5097C54.7626 11.9104 54.7626 11.0861 54.7024 10.1416C54.6439 9.1401 54.3496 8.63937 53.7009 8.49142C53.4021 8.41602 53.0954 8.37619 52.7873 8.37274C52.6686 8.37274 52.5499 8.31422 52.5499 8.19716C52.5499 8.01995 52.6978 7.96143 53.023 7.96143C53.9985 7.96143 55.8534 8.04759 55.9998 8.04759C56.1461 8.04759 58.0092 7.9663 58.892 7.9663C59.2172 7.9663 59.3651 8.02483 59.3651 8.20204C59.3651 8.31909 59.2464 8.37762 59.1277 8.37762C58.8802 8.38698 58.6339 8.41689 58.3913 8.46704C57.5946 8.61336 57.3589 9.11734 57.3004 10.1465C57.2418 11.091 57.2419 11.9153 57.2419 16.5146L57.2386 21.6991Z" fill="white"/>
<path d="M80.7488 8.69775C81.1015 7.7223 81.2202 7.54834 81.3991 7.54834C81.5779 7.54834 81.6933 7.69628 82.0494 8.60834C82.4916 9.73011 87.1201 21.9055 88.9182 26.3877C89.9798 29.0117 90.835 29.4766 91.4544 29.6603C91.8357 29.78 92.2334 29.8392 92.6331 29.8359C92.8103 29.8359 92.9273 29.8668 92.9273 30.0131C92.9273 30.1903 92.6623 30.2489 92.3388 30.2489C91.8966 30.2489 89.7376 30.2489 87.7103 30.1903C87.1494 30.1611 86.8259 30.1611 86.8259 29.9839C86.8259 29.8668 86.9137 29.8067 87.0323 29.7774C87.2079 29.7189 87.3851 29.4522 87.2079 28.9824L84.4669 21.7282C84.4486 21.6736 84.4126 21.6267 84.3646 21.5949C84.3165 21.5631 84.2593 21.5482 84.2019 21.5527H77.8614C77.7932 21.554 77.7274 21.5778 77.6741 21.6204C77.6209 21.6631 77.5833 21.7221 77.5671 21.7884L75.7967 27.0071C75.553 27.6388 75.4141 28.306 75.3854 28.9824C75.3854 29.5709 76.0032 29.8359 76.5055 29.8359H76.7998C77.0062 29.8359 77.094 29.8961 77.094 30.0131C77.094 30.1903 76.9185 30.2489 76.6518 30.2489C75.9446 30.2489 74.6765 30.1611 74.353 30.1611C74.0295 30.1611 72.4021 30.2489 71.0218 30.2489C70.6381 30.2489 70.4609 30.1903 70.4609 30.0131C70.4609 29.8961 70.578 29.8359 70.7259 29.8359C70.9324 29.8359 71.3453 29.8067 71.5811 29.7774C72.937 29.6002 73.532 28.4768 74.0587 27.0136L80.7488 8.69775ZM83.8149 20.4845C83.9629 20.4845 83.9629 20.3967 83.9336 20.2781L81.1373 12.3248C80.9894 11.8826 80.843 11.8826 80.6951 12.3248L78.0939 20.2911C78.0354 20.439 78.0939 20.4975 78.1817 20.4975L83.8149 20.4845Z" fill="white"/>
<path d="M105.909 16.5097C105.909 11.912 105.909 11.0862 105.849 10.1416C105.79 9.14012 105.555 8.66865 104.581 8.46218C104.248 8.4017 103.911 8.37177 103.573 8.37276C103.454 8.37276 103.337 8.31423 103.337 8.19718C103.337 8.01997 103.485 7.96144 103.809 7.96144C105.135 7.96144 106.993 8.04923 107.14 8.04923C107.465 8.04923 109.705 7.96144 110.619 7.96144C112.509 7.82113 114.396 8.27592 116.015 9.26205C116.634 9.73393 117.139 10.3398 117.491 11.0344C117.843 11.7289 118.034 12.4942 118.049 13.2728C117.987 14.5993 117.636 15.8963 117.02 17.0726C116.404 18.2489 115.537 19.2759 114.482 20.0815C116.899 23.1705 118.902 25.8026 120.612 27.6299C121.528 28.74 122.805 29.4914 124.22 29.7515C124.6 29.8119 124.985 29.8412 125.369 29.8393C125.517 29.8393 125.634 29.9287 125.634 30.0165C125.634 30.1937 125.459 30.2523 124.929 30.2523H122.83C121.747 30.3543 120.657 30.1611 119.676 29.693C118.083 28.5186 116.732 27.0481 115.696 25.362C114.459 23.7362 113.072 21.7658 112.484 20.9984C112.438 20.9414 112.379 20.8957 112.313 20.865C112.246 20.8342 112.173 20.8193 112.1 20.8212L108.475 20.7627C108.325 20.7627 108.266 20.8505 108.266 20.9984V21.7056C108.266 24.5361 108.266 26.8658 108.414 28.103C108.502 28.9582 108.679 29.6068 109.564 29.7288C110.004 29.7905 110.446 29.8296 110.89 29.8458C111.068 29.8458 111.126 29.9353 111.126 30.023C111.126 30.171 110.98 30.2588 110.655 30.2588C109.029 30.2588 107.176 30.171 107.029 30.171C107 30.171 105.142 30.2588 104.265 30.2588C103.94 30.2588 103.794 30.2002 103.794 30.023C103.794 29.9353 103.852 29.8458 104.03 29.8458C104.328 29.8357 104.624 29.7965 104.914 29.7288C105.504 29.6101 105.651 28.9614 105.769 28.103C105.917 26.8658 105.917 24.5361 105.917 21.7056L105.909 16.5097ZM108.266 19.0752C108.264 19.1477 108.282 19.2194 108.319 19.2819C108.356 19.3445 108.41 19.3951 108.475 19.4279C109.464 19.7851 110.513 19.9459 111.563 19.901C112.34 19.9442 113.111 19.7485 113.773 19.3402C114.412 18.7791 114.909 18.0746 115.222 17.2845C115.536 16.4943 115.659 15.641 115.579 14.7945C115.579 11.1105 113.628 8.89951 110.477 8.89951C109.814 8.88432 109.152 8.94376 108.502 9.07671C108.43 9.10222 108.368 9.15035 108.326 9.21394C108.283 9.27752 108.262 9.35314 108.266 9.4295V19.0752Z" fill="white"/>
<path d="M135.194 16.5098C135.194 11.9106 135.194 11.0847 135.135 10.1417C135.077 9.14026 134.841 8.66717 133.867 8.4607C133.537 8.40117 133.202 8.37179 132.866 8.37291C132.747 8.37291 132.63 8.31438 132.63 8.1957C132.63 8.01849 132.776 7.95996 133.102 7.95996C134.428 7.95996 136.226 8.04775 136.491 8.04775C136.756 8.04775 138.527 7.96646 139.41 7.96646C139.735 7.96646 139.881 8.02499 139.881 8.2022C139.881 8.32088 139.764 8.37941 139.645 8.37941C139.398 8.38796 139.151 8.41733 138.909 8.4672C138.114 8.58588 137.876 9.1175 137.82 10.1482C137.759 11.0912 137.759 11.9171 137.759 16.5164V20.6442C137.759 24.889 138.702 26.718 139.97 27.926C140.555 28.4967 141.254 28.9368 142.021 29.2171C142.789 29.4973 143.607 29.6114 144.422 29.5517C145.3 29.5468 146.166 29.355 146.964 28.9892C147.762 28.6234 148.474 28.0919 149.05 27.4301C150.406 25.7491 150.761 23.2438 150.761 20.2068V16.5098C150.761 11.9106 150.761 11.0847 150.702 10.1417C150.644 9.14026 150.406 8.66717 149.434 8.4607C149.104 8.40117 148.768 8.37179 148.433 8.37291C148.314 8.37291 148.195 8.31438 148.195 8.1957C148.195 8.01849 148.343 7.95996 148.668 7.95996C149.995 7.95996 151.616 8.04775 151.793 8.04775C151.999 8.04775 153.385 7.95996 154.271 7.95996C154.596 7.95996 154.74 8.01849 154.74 8.1957C154.74 8.31438 154.622 8.37291 154.505 8.37291C154.257 8.38134 154.011 8.41071 153.768 8.4607C152.973 8.6379 152.736 9.111 152.677 10.1417C152.619 11.0847 152.619 11.9106 152.619 16.5098V19.672C152.619 22.8552 152.264 26.3945 149.905 28.4885C148.239 29.9739 146.062 30.7559 143.832 30.6702C141.62 30.7378 139.46 29.9929 137.759 28.5763C136.314 27.1911 135.194 25.128 135.194 20.8214V16.5098Z" fill="white"/>
</g>
</g>
</g>
<defs>
<clipPath id="clip0_1_368">
<rect width="154.28" height="37.56" fill="white" transform="translate(0.47998)"/>
</clipPath>
<clipPath id="clip1_1_368">
<rect width="154.28" height="37.56" fill="white" transform="translate(0.47998)"/>
</clipPath>
<clipPath id="clip2_1_368">
<rect width="154.241" height="37.56" fill="white" transform="translate(0.499479)"/>
</clipPath>
</defs>
</svg>
