<svg width="141" height="72" viewBox="0 0 141 72" fill="none" xmlns="http://www.w3.org/2000/svg">
<g clip-path="url(#clip0_1_391)">
<g clip-path="url(#clip1_1_391)">
<g clip-path="url(#clip2_1_391)">
<path d="M69.0297 56.9219H140.324" stroke="white" stroke-width="0.495488" stroke-miterlimit="10"/>
<path d="M69.1717 64.0278H70.1525L72.7078 69.9111L75.263 64.0278H76.1931V71.0408H75.5403V64.8598H75.5201L72.8464 71.0408H72.559L69.8448 64.8598H69.8245V71.0408H69.1717V64.0278Z" fill="white"/>
<path d="M78.9462 64.0278H83.2348V64.6231H79.599V67.1174H83.0065V67.7127H79.599V70.4455H83.3938V71.0408H78.9462V64.0278Z" fill="white"/>
<path d="M85.5245 64.0278H86.5053L89.0606 69.9111L91.6158 64.0278H92.5459V71.0408H91.8931V64.8598H91.8728L89.1992 71.0408H88.9118L86.1976 64.8598H86.179V71.0408H85.5245V64.0278Z" fill="white"/>
<path d="M95.2973 64.0278H97.3266C98.3971 64.0278 99.5842 64.295 99.5842 65.8796C99.5928 66.2349 99.4689 66.5807 99.2367 66.8498C99.0045 67.1189 98.6805 67.2921 98.3277 67.3356V67.3559C98.544 67.3652 98.7562 67.4173 98.9522 67.5091C99.1481 67.601 99.324 67.7308 99.4694 67.8911C99.6149 68.0513 99.7271 68.2389 99.7997 68.4428C99.8722 68.6467 99.9036 68.863 99.892 69.0791C99.892 70.6924 98.4951 71.0391 97.5448 71.0391H95.2973V64.0278ZM95.9517 67.0583H97.3046C98.6575 67.0583 98.9196 66.3159 98.9196 65.8745C98.9196 64.8937 98.2263 64.6163 97.3976 64.6163H95.9517V67.0583ZM95.9517 70.4404H97.4467C98.9822 70.4404 99.2291 69.5949 99.2291 69.0876C99.2291 68.0475 98.3835 67.64 97.538 67.64H95.9433L95.9517 70.4404Z" fill="white"/>
<path d="M102.364 64.0278H106.653V64.6231H103.017V67.1174H106.425V67.7127H103.017V70.4455H106.81V71.0408H102.364V64.0278Z" fill="white"/>
<path d="M108.976 64.0293H110.82C111.374 64.0293 113.316 64.0293 113.316 65.8709C113.32 66.108 113.276 66.3434 113.187 66.5633C113.099 66.7832 112.967 66.9831 112.799 67.1512C112.632 67.3192 112.433 67.4521 112.213 67.5418C111.994 67.6315 111.759 67.6763 111.522 67.6736L113.563 71.0405H112.82L110.85 67.7125H109.631V71.0405H108.976V64.0293ZM109.631 67.1189H111.018C112.394 67.1189 112.661 66.3562 112.661 65.8709C112.661 65.3855 112.394 64.6229 111.018 64.6229H109.631V67.1189Z" fill="white"/>
<path d="M115.857 69.7435C116.02 70.0224 116.255 70.2518 116.537 70.4071C116.82 70.5623 117.14 70.6375 117.462 70.6246C117.658 70.6449 117.855 70.6247 118.042 70.5653C118.229 70.506 118.402 70.4086 118.55 70.2795C118.697 70.1503 118.817 69.992 118.901 69.8145C118.984 69.6371 119.031 69.4442 119.037 69.248C119.037 67.2864 115.421 68.4363 115.421 65.7712C115.434 65.4943 115.504 65.2231 115.626 64.9742C115.748 64.7254 115.919 64.5041 116.13 64.3241C116.341 64.1441 116.586 64.0092 116.851 63.9277C117.116 63.8462 117.395 63.8197 117.67 63.8501C118.036 63.8328 118.401 63.9038 118.733 64.0571C119.066 64.2105 119.357 64.4417 119.581 64.7311L119.016 65.1387C118.867 64.9157 118.663 64.7347 118.424 64.613C118.185 64.4913 117.918 64.433 117.65 64.4437C116.804 64.4437 116.076 64.88 116.076 65.7712C116.076 67.8816 119.691 66.6167 119.691 69.248C119.687 69.5243 119.626 69.7968 119.512 70.0485C119.398 70.3002 119.233 70.5256 119.028 70.7107C118.823 70.8957 118.581 71.0365 118.319 71.1241C118.057 71.2117 117.78 71.2443 117.505 71.2198C117.067 71.2469 116.629 71.1641 116.231 70.9789C115.833 70.7937 115.488 70.5121 115.227 70.1595L115.857 69.7435Z" fill="white"/>
<path d="M74.5815 18.5307C70.2625 18.5307 69.1142 16.4101 69.1142 13.7246V9.27033C69.1142 6.33122 69.9327 3.82334 74.8927 3.82334C76.3215 3.7 77.7481 4.08509 78.9208 4.91071C79.1339 5.12548 78.3949 6.66267 78.1226 6.48849C77.2155 5.86804 76.1263 5.57027 75.0296 5.64295C72.6165 5.64295 71.5274 6.44114 71.5274 9.33966V13.5116C71.5274 15.8656 72.3442 16.8176 74.5426 16.8176C76.2929 16.8176 77.1689 16.2731 77.1689 14.347V12.5138C77.1689 12.2991 77.1503 12.1046 76.8002 12.1046L75.4761 12.086C75.2038 12.086 75.0871 12.0657 75.0871 11.7478V10.7872C75.0871 10.5928 75.0871 10.4372 75.3594 10.4372H78.5505C79.3284 10.4372 79.4265 10.5742 79.4265 11.2354V13.9783C79.4265 16.0989 78.9597 18.5307 74.5815 18.5307Z" fill="white"/>
<path d="M88.9371 11.7989C88.6648 11.8767 88.6648 11.8581 88.7815 12.0915L91.4619 17.5976C91.7139 18.1219 91.675 18.2741 91.2928 18.2741H89.5594C89.2094 18.2741 89.1519 18.1185 88.9963 17.7498L86.5053 12.5379C86.4812 12.4707 86.4339 12.4144 86.3718 12.379C86.3098 12.3437 86.2372 12.3317 86.1671 12.3451H84.1699C83.9569 12.3451 83.9569 12.4026 83.9569 12.6563V17.6551C83.9569 18.1625 83.8402 18.2775 83.4901 18.2775H81.9682C81.5403 18.2775 81.5792 18.0441 81.5792 17.601V4.54248C81.5792 4.17383 81.6367 4.03516 82.0442 4.03516H86.2195C89.7015 4.03516 91.5498 5.55713 91.5498 8.18C91.5573 8.9821 91.3083 9.7656 90.8392 10.4163C90.3702 11.067 89.7055 11.5508 88.9422 11.7972M86.1164 5.80741H84.3069C84.0144 5.82601 83.9569 6.00189 83.9569 6.15747V10.1264C83.9569 10.4765 84.0347 10.4951 84.3458 10.4951H86.7387C87.0567 10.5317 87.3789 10.498 87.6825 10.3963C87.9861 10.2947 88.2636 10.1277 88.4956 9.90705C88.7275 9.68641 88.9082 9.41752 89.0248 9.11939C89.1414 8.82126 89.1911 8.50115 89.1705 8.18169C89.1705 6.41113 87.7703 5.81418 86.1164 5.81418" fill="white"/>
<path d="M98.0791 18.5311C96.153 18.5311 92.7488 18.1218 92.7488 14.4454V8.70589C92.7488 5.22395 94.4399 3.82373 98.0216 3.82373C100.896 3.82373 103.313 4.9111 103.313 8.6467V13.8417C103.313 18.4076 99.7516 18.5311 98.0707 18.5311M100.946 8.78368C100.946 6.66306 99.9732 5.72958 98.1045 5.72958C95.8097 5.72958 95.0301 6.81864 95.0301 8.86147V13.9347C95.0295 14.3172 95.1106 14.6955 95.2681 15.0441C95.4255 15.3927 95.6557 15.7036 95.9432 15.956C96.2306 16.2084 96.5687 16.3964 96.9348 16.5074C97.3008 16.6185 97.6864 16.65 98.0656 16.5999C99.6417 16.5999 100.94 16.1128 100.94 13.5559L100.946 8.78368Z" fill="white"/>
<path d="M109.653 18.5311C107.454 18.5311 104.712 17.5774 104.712 14.1918V4.54248C104.712 4.17383 104.789 4.05545 105.05 4.03516H106.529C106.868 4.03516 107.015 4.17213 107.015 4.67777V13.4528C107.015 15.4567 108.106 16.5864 109.661 16.5864C111.821 16.5864 112.347 15.3603 112.347 13.4139V4.54248C112.347 4.17383 112.423 4.05545 112.685 4.03516H114.207C114.545 4.03516 114.694 4.17213 114.694 4.67777V13.8671C114.694 17.9528 111.775 18.5362 109.675 18.5362" fill="white"/>
<path d="M121.091 13.1805H118.873C118.6 13.1805 118.562 13.2397 118.562 13.5695V17.6551C118.562 18.1625 118.445 18.2775 118.095 18.2775H116.573C116.145 18.2775 116.184 18.0441 116.184 17.601V4.54248C116.184 4.17383 116.243 4.03516 116.651 4.03516H120.819C124.397 4.03516 126.149 5.55713 126.149 8.54866C126.149 11.5402 124.475 13.1805 121.091 13.1805ZM120.718 5.80741H118.908C118.616 5.82601 118.558 6.00189 118.558 6.15747V10.9635C118.558 11.3017 118.636 11.3322 118.947 11.3322H121.301C122.701 11.3322 123.753 10.4951 123.753 8.45734C123.753 6.57009 122.372 5.81079 120.718 5.81079" fill="white"/>
<path d="M74.4445 35.6292C72.5184 35.6292 69.1142 35.22 69.1142 31.5436V25.804C69.1142 22.3221 70.8053 20.9219 74.387 20.9219C77.2619 20.9219 79.6784 22.0109 79.6784 25.7465V30.9466C79.6784 35.5125 76.1272 35.636 74.4445 35.636M77.3194 25.8886C77.3194 23.768 76.347 22.8345 74.4783 22.8345C72.1835 22.8345 71.4056 23.9235 71.4056 25.9664V31.0396C71.4048 31.4221 71.4857 31.8003 71.643 32.1489C71.8002 32.4975 72.0303 32.8084 72.3176 33.0609C72.6049 33.3133 72.9429 33.5013 73.3089 33.6124C73.6748 33.7234 74.0603 33.7549 74.4394 33.7048C76.0155 33.7048 77.3143 33.2177 77.3143 30.671L77.3194 25.8886Z" fill="white"/>
<path d="M88.1592 22.9244H83.8605C83.4309 22.9244 83.3532 23.08 83.3532 23.2356V27.0574C83.3532 27.4278 83.4698 27.5056 83.781 27.5056H87.5166C88.0611 27.5056 88.1406 27.6223 88.1 27.8556L88.0222 28.9633C87.9444 29.3539 87.498 29.3133 87.109 29.3133H83.8402C83.4698 29.3133 83.392 29.4503 83.392 29.7818V35.0343C83.392 35.3065 83.2754 35.3843 83.0809 35.3843H81.5251C81.2731 35.3843 81.1158 35.249 81.1158 34.8195V21.7762C81.1158 21.4075 81.1361 21.1353 81.4862 21.1353H88.2945C88.7629 21.1353 88.8204 21.2519 88.8204 21.4464V22.5152C88.8204 22.8669 88.6259 22.9244 88.1592 22.9244Z" fill="white"/>
<path d="M101.424 35.3759H94.0307C93.7787 35.3759 93.5842 35.2406 93.5842 34.811V21.7762C93.5842 21.4075 93.6028 21.1353 93.9529 21.1353H100.996C101.463 21.1353 101.522 21.1741 101.522 21.4464V22.593C101.522 22.9058 101.172 22.9058 100.628 22.9058H96.3069C95.8807 22.9058 95.7995 23.0614 95.7995 23.217V26.5822C95.7995 26.9526 95.9179 27.0287 96.2291 27.0287H100.086C100.633 27.0287 100.71 27.1268 100.672 27.3787L100.535 28.4695C100.475 28.877 99.9901 28.8381 99.6197 28.8381H96.3897C95.9822 28.8381 95.8452 28.9548 95.8452 29.2863V33.0997C95.8452 33.5478 96.0786 33.5275 96.41 33.5275H101.118C101.625 33.5275 101.838 33.5867 101.838 33.8962V35.0258C101.838 35.2981 101.624 35.3759 101.429 35.3759" fill="white"/>
<path d="M105.08 35.3759H103.582C103.232 35.3759 103.135 35.2592 103.135 34.8313V21.5631C103.135 21.1928 103.232 21.1353 103.66 21.1353H105.1C105.451 21.1353 105.489 21.2519 105.489 21.6798V34.9294C105.489 35.2676 105.43 35.3759 105.08 35.3759Z" fill="white"/>
<path d="M112.394 35.6293C108.075 35.6293 106.927 33.5087 106.927 30.8233V26.3689C106.927 23.4298 107.745 20.922 112.705 20.922C114.135 20.797 115.562 21.1829 116.733 22.011C116.947 22.2241 116.208 23.7613 115.935 23.5871C115.028 22.9667 113.939 22.6689 112.842 22.7416C110.429 22.7416 109.34 23.5398 109.34 26.4383V30.6085C109.34 32.9625 110.157 33.9163 112.355 33.9163C114.106 33.9163 114.982 33.37 114.982 31.4439V29.6175C114.982 29.4044 114.963 29.2083 114.613 29.2083L113.289 29.1897C113.016 29.1897 112.9 29.1694 112.9 28.8515V27.8858C112.9 27.6914 112.9 27.5358 113.172 27.5358H116.363C117.141 27.5358 117.237 27.6711 117.237 28.334V31.0769C117.237 33.1975 116.772 35.6293 112.394 35.6293Z" fill="white"/>
<path d="M128.639 35.3756H127.179C126.868 35.3756 126.713 35.2403 126.713 34.8108V29.2674C126.713 28.9173 126.653 28.8767 126.342 28.8767H121.284C121.051 28.8767 120.973 28.897 120.973 29.215V34.76C120.973 35.2673 120.856 35.3823 120.39 35.3823H119.037C118.699 35.3823 118.628 35.1879 118.628 34.6619V21.6457C118.628 21.2753 118.705 21.1383 119.055 21.1383H120.457C120.883 21.1383 120.981 21.2736 120.981 21.7793V26.6631C120.981 26.9743 121.118 27.0318 121.43 27.0318H126.39C126.623 27.0318 126.728 26.9354 126.728 26.6935V21.6541C126.728 21.2855 126.865 21.1299 127.272 21.1299H128.625C129.073 21.1299 129.073 21.2855 129.073 21.6152V34.7482C129.073 35.2555 129.034 35.3705 128.645 35.3705" fill="white"/>
<path d="M139.977 22.9447H136.825C136.436 22.9447 136.379 23.0039 136.379 23.3151V34.735C136.379 35.2423 136.32 35.3776 135.892 35.3776H134.549C134.121 35.3776 134.042 35.2998 134.042 34.735V23.3151C134.042 23.0039 133.984 22.9447 133.594 22.9447H130.482C130.134 22.9447 130.074 22.8483 130.074 22.6538V21.4464C130.074 21.1741 130.211 21.1353 130.619 21.1353H139.827C140.216 21.1353 140.392 21.1555 140.392 21.4075V22.6606C140.392 22.8297 140.333 22.9515 139.982 22.9515" fill="white"/>
<path d="M76.073 49.816H75.5522C75.3307 49.816 75.3628 49.7365 75.2681 49.4051L74.382 46.5048H70.2473L69.378 49.4067C69.2833 49.745 69.2529 49.8177 69.0787 49.8177H68.5274C68.3854 49.8177 68.3685 49.8025 68.5274 49.2968L71.7287 38.7749C71.8403 38.4113 71.9197 38.2676 72.1869 38.2676H72.5505C72.8177 38.2676 72.8887 38.4079 73.0071 38.7749L76.21 49.2968C76.3673 49.8042 76.2252 49.8177 76.068 49.8177M72.329 39.453L70.4688 45.7946H74.1773L72.329 39.453Z" fill="white"/>
<path d="M80.7692 50.0206C80.2924 50.0592 79.8129 49.9957 79.3627 49.8341C78.9125 49.6725 78.502 49.4167 78.1586 49.0837C77.8152 48.7507 77.5469 48.3482 77.3715 47.9032C77.1962 47.4582 77.1179 46.9809 77.1418 46.5032V38.6785C77.1418 38.3775 77.1723 38.2828 77.2517 38.2676H77.8352C77.9451 38.2676 78.0043 38.3775 78.0043 38.7884V46.2191C77.9529 46.6076 77.9866 47.0027 78.1029 47.377C78.2193 47.7512 78.4156 48.0958 78.6782 48.3867C78.9409 48.6776 79.2636 48.908 79.624 49.062C79.9844 49.2159 80.374 49.2897 80.7658 49.2782C82.9896 49.2782 83.5578 48.1587 83.5578 46.1869V38.6785C83.5578 38.3775 83.5899 38.2828 83.6694 38.2676H84.2528C84.3627 38.2676 84.4219 38.3775 84.4219 38.7884V46.2292C84.5014 46.7335 84.4627 47.2493 84.3089 47.736C84.1551 48.2228 83.8904 48.6672 83.5357 49.0342C83.1809 49.4013 82.7458 49.681 82.2645 49.8513C81.7833 50.0215 81.2691 50.0778 80.7624 50.0155" fill="white"/>
<path d="M89.1164 50.0377C88.036 50.0983 86.9585 49.875 85.9912 49.39C85.834 49.297 86.135 48.5072 86.3295 48.6019C87.1718 49.073 88.1262 49.3068 89.091 49.2784C90.8108 49.2784 92.2939 48.7423 92.2939 47.1019C92.2939 45.7288 91.6936 45.0354 89.485 44.1662C87.64 43.4424 86.4411 42.6442 86.4411 40.806C86.4411 39.5918 87.3712 38.1003 90.1158 38.1003C90.9758 38.0296 91.841 38.1449 92.6524 38.4385C92.9534 38.5484 92.622 39.2587 92.4004 39.1809C91.687 38.951 90.9414 38.8368 90.1919 38.8427C87.9833 38.8427 87.3357 39.6781 87.3357 40.8923C87.3357 42.2181 88.1406 42.7711 90.1124 43.5287C92.5898 44.474 93.1885 45.5952 93.1885 46.9108C93.1885 49.1498 91.2962 50.0343 89.1197 50.0343" fill="white"/>
<path d="M101.091 39.0404H98.4089C98.0707 39.0404 98.047 39.0878 98.047 39.3397V49.2951C98.047 49.7044 98.0774 49.816 97.8424 49.816H97.3689C97.1795 49.816 97.1625 49.7517 97.1625 49.2951V39.3397C97.1625 39.0878 97.1473 39.0404 96.8007 39.0404H94.0949C93.8751 39.0404 93.8108 39.0252 93.8108 38.9136V38.4248C93.8108 38.298 93.8277 38.2676 94.1118 38.2676H101.045C101.299 38.2676 101.362 38.2676 101.362 38.3775V38.9136C101.362 39.0083 101.297 39.0404 101.091 39.0404Z" fill="white"/>
<path d="M107.262 44.3571C107.057 44.3892 107.042 44.3892 107.135 44.5617L109.565 49.2629C109.817 49.7703 109.722 49.8159 109.502 49.8159H108.949C108.807 49.8159 108.728 49.7043 108.588 49.405L106.237 44.626C106.173 44.4992 106.095 44.467 105.936 44.467H103.697C103.508 44.467 103.508 44.4992 103.508 44.7359V49.3018C103.508 49.7128 103.491 49.8092 103.349 49.8092H102.812C102.56 49.8092 102.591 49.6198 102.591 49.2562V38.67C102.591 38.3707 102.591 38.2607 102.877 38.2607H105.498C108.163 38.2607 109.631 39.223 109.631 41.352C109.635 42.0463 109.403 42.7213 108.973 43.2662C108.542 43.8111 107.94 44.1934 107.263 44.3503M105.544 38.9862H103.759C103.523 39.0014 103.475 39.1435 103.475 39.2703V43.4355C103.475 43.7348 103.538 43.7348 103.79 43.7348H106.174C106.5 43.7793 106.832 43.7511 107.145 43.6522C107.459 43.5534 107.747 43.3863 107.988 43.1631C108.229 42.9398 108.418 42.6659 108.541 42.3609C108.664 42.056 108.718 41.7276 108.699 41.3994C108.699 39.4902 107.279 38.9862 105.544 38.9862Z" fill="white"/>
<path d="M119.221 49.816H118.7C118.479 49.816 118.511 49.7365 118.416 49.4051L117.533 46.5048H113.4L112.531 49.4067C112.436 49.745 112.406 49.8177 112.232 49.8177H111.68C111.538 49.8177 111.522 49.8025 111.68 49.2968L114.882 38.7749C114.992 38.4113 115.071 38.2676 115.34 38.2676H115.704C115.971 38.2676 116.05 38.4079 116.16 38.7749L119.365 49.2951C119.524 49.8025 119.382 49.816 119.224 49.816M115.475 39.4513L113.615 45.7929H117.335L115.475 39.4513Z" fill="white"/>
<path d="M127.015 49.816H121.492C121.303 49.816 121.242 49.7213 121.242 49.2647V38.6785C121.242 38.3792 121.255 38.2676 121.477 38.2676H121.886C122.123 38.2676 122.123 38.3792 122.123 38.7884V48.7895C122.123 49.0432 122.233 49.0905 122.487 49.0905H126.975C127.228 49.0905 127.211 49.1057 127.211 49.3425V49.5792C127.211 49.816 127.211 49.816 127.008 49.816" fill="white"/>
<path d="M129.271 49.816H128.72C128.593 49.816 128.593 49.7365 128.593 49.422V38.5365C128.593 38.2997 128.64 38.2676 128.892 38.2676H129.231C129.483 38.2676 129.467 38.3149 129.467 38.6464V49.4693C129.467 49.7365 129.467 49.8075 129.263 49.8075" fill="white"/>
<path d="M139.274 49.816H138.753C138.532 49.816 138.564 49.7365 138.469 49.4051L137.586 46.5048H133.453L132.584 49.4067C132.489 49.745 132.459 49.8177 132.285 49.8177H131.733C131.591 49.8177 131.574 49.8025 131.733 49.2968L134.936 38.7749C135.046 38.4113 135.126 38.2676 135.393 38.2676H135.756C136.024 38.2676 136.095 38.4079 136.213 38.7749L139.416 49.2968C139.573 49.8042 139.431 49.816 139.274 49.816ZM135.535 39.453L133.675 45.7946H137.383L135.535 39.453Z" fill="white"/>
<path d="M0.143372 23.8545L4.34571 41.5534L16.5706 26.9103L0.143372 23.8545Z" fill="white"/>
<path d="M28.2627 0.294434L0.473145 23.0344L17.1168 26.1291L28.2627 0.294434Z" fill="white"/>
<path d="M40.3996 11.9799L29.3129 0.0458984L18.3158 25.5339L40.3996 11.9799Z" fill="white"/>
<path d="M37.6838 37.9395L40.1815 13.1313L18.2211 26.611L37.6838 37.9395Z" fill="white"/>
<path d="M41.049 13.165L38.5445 38.0324L61.5432 30.4834L41.049 13.165Z" fill="white"/>
<path d="M62.1064 31.2104L38.4498 38.9759L38.4464 39.008L51.3917 50.5497L62.1064 31.2104Z" fill="white"/>
<path d="M5.0881 42.0165L37.3168 38.7273L17.4753 27.1772L5.0881 42.0165Z" fill="white"/>
<path d="M45.4762 0L40.868 11.8714L61.8273 29.5889L45.4762 0Z" fill="white"/>
</g>
</g>
</g>
<defs>
<clipPath id="clip0_1_391">
<rect width="140.25" height="71.22" fill="white" transform="translate(0.140015)"/>
</clipPath>
<clipPath id="clip1_1_391">
<rect width="140.25" height="71.22" fill="white" transform="translate(0.140015)"/>
</clipPath>
<clipPath id="clip2_1_391">
<rect width="140.243" height="71.22" fill="white" transform="translate(0.143372)"/>
</clipPath>
</defs>
</svg>
