<svg width="161" height="57" viewBox="0 0 161 57" fill="none" xmlns="http://www.w3.org/2000/svg">
<g clip-path="url(#clip0_1_5)">
<g clip-path="url(#clip1_1_5)">
<g clip-path="url(#clip2_1_5)">
<path d="M67.7102 15.1371L73.0142 0.458923H75.1358L80.4473 15.1371H78.5289L77.0844 11.1196H71.0882L69.6136 15.1371H67.7102ZM71.5622 9.39674H76.5878L74.0901 2.32473L71.5622 9.39674Z" fill="black"/>
<path d="M85.9168 15.3402C85.3676 15.3327 84.856 15.2575 84.367 15.0995C83.878 14.9415 83.4567 14.7233 83.0805 14.4224C82.7119 14.1214 82.4185 13.7528 82.2003 13.3089C81.9896 12.865 81.8768 12.3534 81.8768 11.7591V4.64946H83.7576V11.5785C83.7576 12.2632 83.9683 12.8199 84.3896 13.2412C84.8109 13.67 85.4504 13.8807 86.3005 13.8807C87.0679 13.8807 87.6924 13.6776 88.1588 13.2788C88.6253 12.8801 88.866 12.2782 88.866 11.4807V4.64946H90.7318V15.1446H89.2422L89.0466 13.1359C88.9187 13.6625 88.7005 14.0913 88.392 14.4149C88.0836 14.7384 87.7149 14.9791 87.2861 15.1296C86.8723 15.28 86.4059 15.3478 85.9168 15.3402Z" fill="black"/>
<path d="M97.202 15.3402C96.4722 15.3402 95.7951 15.2274 95.1707 15.0017C94.5462 14.776 94.0271 14.4224 93.6133 13.9334C93.1995 13.4519 92.9362 12.8349 92.8309 12.0826H94.5387C94.6365 12.4964 94.802 12.8349 95.0503 13.1133C95.2985 13.3842 95.607 13.5948 95.9757 13.7302C96.3443 13.8656 96.7506 13.9409 97.1945 13.9409C97.9017 13.9409 98.4659 13.8055 98.9023 13.5421C99.3386 13.2788 99.5493 12.8726 99.5493 12.3233C99.5493 11.9397 99.4364 11.6312 99.2107 11.398C98.985 11.1647 98.6314 10.9917 98.1574 10.8864L95.9832 10.3522C95.1406 10.1491 94.4635 9.8331 93.9519 9.39674C93.4478 8.96038 93.192 8.35851 93.192 7.5836C93.1845 6.96668 93.3274 6.42499 93.6284 5.95854C93.9293 5.49209 94.3732 5.12344 94.9675 4.8526C95.5619 4.58176 96.3067 4.44633 97.1869 4.44633C98.323 4.44633 99.2408 4.70213 99.9405 5.21372C100.64 5.72532 101.001 6.47766 101.031 7.46322H99.3762C99.3085 6.96668 99.0828 6.56794 98.6991 6.27452C98.3154 5.98111 97.8038 5.83064 97.1644 5.83064C96.4948 5.83064 95.9531 5.96606 95.5318 6.22938C95.1105 6.50023 94.8998 6.91402 94.8998 7.47075C94.8998 7.8394 95.0503 8.13281 95.3437 8.35099C95.6446 8.56164 96.081 8.7422 96.6603 8.88515L98.7593 9.41179C99.2483 9.53969 99.6471 9.71273 99.9631 9.91586C100.279 10.1265 100.527 10.3597 100.715 10.6155C100.903 10.8713 101.031 11.1422 101.114 11.4205C101.189 11.6989 101.235 11.9697 101.235 12.2255C101.235 12.865 101.077 13.4218 100.753 13.8882C100.43 14.3547 99.9706 14.7083 99.3762 14.9641C98.7819 15.2123 98.0521 15.3402 97.202 15.3402Z" fill="black"/>
<path d="M108.758 6.01872H106.396V12.5415C106.396 12.9102 106.433 13.1885 106.516 13.3616C106.591 13.5346 106.727 13.6475 106.915 13.6926C107.103 13.7377 107.359 13.7603 107.682 13.7603H108.826V15.0167C108.698 15.0619 108.502 15.107 108.246 15.1371C107.983 15.1672 107.66 15.1898 107.276 15.1898C106.554 15.1898 105.989 15.092 105.591 14.8964C105.192 14.7007 104.913 14.4073 104.756 14.0236C104.598 13.6399 104.515 13.166 104.515 12.6017V6.01872H102.807V4.64946H104.56L105.019 1.59496H106.396V4.64194H108.758V6.01872Z" fill="black"/>
<path d="M111.256 15.1371V4.64947H113.039V6.66574C113.212 6.16167 113.46 5.74789 113.776 5.42438C114.092 5.09335 114.461 4.8526 114.867 4.68708C115.273 4.52157 115.702 4.44633 116.138 4.44633C116.296 4.44633 116.447 4.45386 116.597 4.47643C116.748 4.499 116.861 4.52909 116.943 4.57423V6.3949C116.846 6.34976 116.71 6.31214 116.552 6.29709C116.394 6.28205 116.259 6.27452 116.153 6.27452C115.732 6.24443 115.341 6.27452 114.972 6.34976C114.604 6.42499 114.288 6.56041 114.009 6.7485C113.731 6.93659 113.513 7.18486 113.355 7.49332C113.197 7.80178 113.114 8.17795 113.114 8.61431V15.1371H111.256Z" fill="black"/>
<path d="M121.555 15.3402C120.878 15.3402 120.276 15.2199 119.757 14.9791C119.238 14.7384 118.832 14.3923 118.531 13.9409C118.237 13.4895 118.087 12.9403 118.087 12.3008C118.087 11.1346 118.493 10.2695 119.306 9.7052C120.118 9.13342 121.42 8.83248 123.21 8.79487L125.091 8.7422V7.92215C125.091 7.28266 124.896 6.77107 124.512 6.3949C124.128 6.01873 123.526 5.83064 122.714 5.83064C122.112 5.83817 121.585 5.98111 121.126 6.25948C120.668 6.53784 120.374 6.98925 120.239 7.62121H118.584C118.621 6.93658 118.817 6.3648 119.163 5.89083C119.509 5.41685 119.99 5.06325 120.607 4.8225C121.224 4.58176 121.962 4.45386 122.804 4.45386C123.714 4.45386 124.474 4.58176 125.084 4.83755C125.686 5.09335 126.145 5.47704 126.445 5.97359C126.746 6.47766 126.897 7.08705 126.897 7.81682V15.1446H125.294L125.167 13.1735C124.76 13.9935 124.241 14.5578 123.617 14.8738C122.992 15.1822 122.308 15.3402 121.555 15.3402ZM122.127 13.9935C122.481 13.9935 122.827 13.9258 123.18 13.7979C123.526 13.67 123.85 13.497 124.143 13.2788C124.437 13.0606 124.662 12.8124 124.835 12.5415C125.009 12.2707 125.099 11.9848 125.106 11.6914V9.89329L123.541 9.92338C122.744 9.93843 122.074 10.0212 121.54 10.1641C121.006 10.3146 120.6 10.5478 120.329 10.8638C120.058 11.1798 119.93 11.6011 119.93 12.1127C119.93 12.6995 120.133 13.1584 120.547 13.4895C120.946 13.828 121.473 13.9935 122.127 13.9935Z" fill="black"/>
<path d="M132.397 15.2725C131.825 15.2725 131.373 15.1973 131.02 15.0393C130.674 14.8813 130.403 14.6707 130.215 14.4073C130.027 14.144 129.906 13.8431 129.839 13.497C129.771 13.1584 129.741 12.8048 129.741 12.4362V0.0601807H131.592V12.2556C131.592 12.7823 131.697 13.181 131.9 13.4443C132.103 13.7077 132.397 13.8506 132.765 13.8807L133.337 13.8882V15.107C133.179 15.1522 133.021 15.1898 132.848 15.2274C132.682 15.2575 132.532 15.2725 132.397 15.2725Z" fill="black"/>
<path d="M137.55 0.473969V2.42253H135.632V0.473969H137.55ZM137.512 4.64946V15.1446H135.699V4.64946H137.512Z" fill="black"/>
<path d="M143.509 15.3402C142.831 15.3402 142.23 15.2199 141.71 14.9791C141.191 14.7384 140.785 14.3923 140.484 13.9409C140.191 13.4895 140.04 12.9403 140.04 12.3008C140.04 11.1346 140.447 10.2695 141.259 9.7052C142.072 9.13342 143.373 8.83248 145.164 8.79487L147.045 8.7422V7.92215C147.045 7.28266 146.849 6.77107 146.465 6.3949C146.082 6.01873 145.48 5.83064 144.667 5.83064C144.065 5.83817 143.539 5.98111 143.08 6.25948C142.621 6.53784 142.327 6.98925 142.192 7.62121H140.537C140.574 6.93658 140.77 6.3648 141.116 5.89083C141.462 5.41685 141.944 5.06325 142.561 4.8225C143.178 4.58176 143.915 4.45386 144.757 4.45386C145.668 4.45386 146.428 4.58176 147.037 4.83755C147.639 5.09335 148.098 5.47704 148.399 5.97359C148.7 6.47766 148.85 7.08705 148.85 7.81682V15.1446H147.248L147.12 13.1735C146.714 13.9935 146.194 14.5578 145.57 14.8738C144.946 15.1822 144.261 15.3402 143.509 15.3402ZM144.073 13.9935C144.426 13.9935 144.773 13.9258 145.126 13.7979C145.472 13.67 145.796 13.497 146.089 13.2788C146.383 13.0606 146.608 12.8124 146.781 12.5415C146.954 12.2707 147.045 11.9848 147.052 11.6914V9.89329L145.487 9.92338C144.69 9.93843 144.02 10.0212 143.486 10.1641C142.952 10.3146 142.546 10.5478 142.275 10.8638C142.004 11.1798 141.876 11.6011 141.876 12.1127C141.876 12.6995 142.079 13.1584 142.493 13.4895C142.899 13.828 143.426 13.9935 144.073 13.9935Z" fill="black"/>
<path d="M151.611 15.1371V4.64946H153.432V6.16919C153.598 5.87578 153.838 5.60493 154.139 5.34914C154.44 5.09334 154.809 4.88269 155.238 4.73222C155.666 4.57423 156.163 4.49899 156.727 4.49899C157.389 4.49899 157.999 4.63441 158.555 4.89773C159.112 5.16105 159.564 5.57484 159.895 6.13157C160.233 6.68831 160.399 7.41055 160.399 8.29079V15.1521H158.518V8.47136C158.518 7.6513 158.3 7.04191 157.871 6.65069C157.442 6.25195 156.885 6.05634 156.201 6.05634C155.727 6.05634 155.283 6.13157 154.869 6.28204C154.455 6.43251 154.124 6.66574 153.861 6.9742C153.605 7.28266 153.477 7.66635 153.477 8.1328V15.1446H151.611V15.1371Z" fill="black"/>
<path d="M77.5433 19.3352H79.4242V34.0134H77.7465L69.8694 22.4423V34.0134H67.9886V19.3352H69.7867L77.5433 30.7407V19.3352Z" fill="black"/>
<path d="M85.5407 34.2165C84.8636 34.2165 84.2617 34.0961 83.7426 33.8554C83.2235 33.6146 82.8172 33.2685 82.5163 32.8171C82.2229 32.3657 82.0724 31.8165 82.0724 31.177C82.0724 30.0109 82.4787 29.1457 83.2912 28.5814C84.1037 28.0097 85.4053 27.7087 87.1958 27.6711L89.0767 27.6184V26.7833C89.0767 26.1439 88.8811 25.6323 88.4974 25.2561C88.1137 24.8799 87.5118 24.6918 86.6993 24.6918C86.0974 24.6994 85.5708 24.8423 85.1118 25.1207C84.6529 25.399 84.3595 25.8504 84.2241 26.4824H82.5689C82.6066 25.7978 82.8022 25.226 83.1482 24.752C83.4943 24.278 83.9758 23.9244 84.5927 23.6837C85.2097 23.4429 85.9469 23.315 86.7896 23.315C87.6999 23.315 88.4598 23.4429 89.0692 23.6987C89.6786 23.9545 90.13 24.3382 90.4309 24.8348C90.7318 25.3388 90.8823 25.9482 90.8823 26.678V34.0058H89.2798L89.1519 32.0347C88.7457 32.8547 88.2265 33.419 87.6021 33.735C86.9777 34.0585 86.293 34.2165 85.5407 34.2165ZM86.1049 32.8623C86.4585 32.8623 86.8046 32.7945 87.1582 32.6667C87.5043 32.5388 87.8278 32.3657 88.1137 32.1475C88.4071 31.9294 88.6328 31.6811 88.8058 31.4027C88.9789 31.1319 89.0692 30.846 89.0767 30.5526V28.7545L87.5118 28.7846C86.7143 28.7996 86.0448 28.8824 85.5106 29.0253C84.9689 29.1758 84.5702 29.409 84.2993 29.725C84.0285 30.041 83.9006 30.4623 83.9006 30.9739C83.9006 31.5607 84.1037 32.0196 84.5175 32.3507C84.9313 32.6967 85.4579 32.8623 86.1049 32.8623Z" fill="black"/>
<path d="M98.5336 24.8875H96.1712V31.4103C96.1712 31.7789 96.2089 32.0573 96.2916 32.2303C96.3669 32.4033 96.5023 32.5162 96.6904 32.5613C96.8784 32.6065 97.1342 32.629 97.4577 32.629H98.6013V33.8855C98.4734 33.9306 98.2778 33.9757 98.022 34.0058C97.7587 34.0434 97.4352 34.0585 97.0515 34.0585C96.3292 34.0585 95.765 33.9607 95.3662 33.7651C94.9675 33.5695 94.6891 33.2761 94.5311 32.8924C94.3732 32.5087 94.2904 32.0347 94.2904 31.4704V24.8799H92.5826V23.5107H94.3355L94.7945 20.4562H96.1712V23.5031H98.5336V24.8875Z" fill="black"/>
<path d="M103.093 19.3427V21.2913H101.174V19.3427H103.093ZM103.055 23.5182V34.0134H101.242V23.5182H103.055Z" fill="black"/>
<path d="M110.323 34.2165C109.352 34.2165 108.51 34.0058 107.787 33.592C107.065 33.1782 106.501 32.5688 106.102 31.7638C105.703 30.9588 105.5 29.9733 105.5 28.8071C105.5 27.7087 105.688 26.7532 106.057 25.9257C106.426 25.0981 106.975 24.4586 107.697 23.9997C108.419 23.5408 109.292 23.315 110.323 23.315C111.293 23.315 112.128 23.5257 112.843 23.947C113.558 24.3683 114.107 24.9928 114.506 25.8128C114.897 26.6329 115.093 27.626 115.093 28.8071C115.093 29.8755 114.912 30.8159 114.551 31.6284C114.19 32.441 113.656 33.0729 112.948 33.5318C112.241 33.9832 111.361 34.2165 110.323 34.2165ZM110.323 32.7344C110.955 32.7344 111.481 32.5764 111.918 32.2604C112.354 31.9444 112.678 31.4855 112.903 30.8911C113.129 30.2968 113.242 29.5896 113.242 28.7695C113.242 28.0172 113.144 27.3401 112.948 26.7457C112.753 26.1439 112.437 25.6699 112.008 25.3163C111.579 24.9627 111.015 24.7896 110.33 24.7896C109.691 24.7896 109.157 24.9476 108.72 25.2636C108.284 25.5796 107.945 26.031 107.72 26.6254C107.494 27.2197 107.381 27.9344 107.381 28.7695C107.381 29.5068 107.479 30.1764 107.682 30.7783C107.885 31.3801 108.201 31.8541 108.638 32.2077C109.059 32.5538 109.623 32.7344 110.323 32.7344Z" fill="black"/>
<path d="M117.357 34.0134V23.5182H119.178V25.0379C119.343 24.7445 119.584 24.4737 119.885 24.2179C120.186 23.9621 120.555 23.7514 120.983 23.6009C121.412 23.443 121.909 23.3677 122.473 23.3677C123.135 23.3677 123.745 23.5031 124.301 23.7665C124.858 24.0298 125.309 24.4436 125.64 25.0003C125.979 25.557 126.145 26.2793 126.145 27.1595V34.0209H124.264V27.3401C124.264 26.52 124.046 25.9106 123.617 25.5194C123.188 25.1207 122.631 24.9251 121.946 24.9251C121.473 24.9251 121.029 25.0003 120.615 25.1508C120.201 25.3012 119.87 25.5345 119.607 25.8429C119.351 26.1514 119.223 26.5351 119.223 27.0015V34.0134H117.357Z" fill="black"/>
<path d="M131.734 34.2165C131.057 34.2165 130.455 34.0961 129.936 33.8554C129.417 33.6146 129.011 33.2685 128.71 32.8171C128.417 32.3657 128.266 31.8165 128.266 31.177C128.266 30.0109 128.672 29.1457 129.485 28.5814C130.298 28.0097 131.599 27.7087 133.39 27.6711L135.27 27.6184V26.7833C135.27 26.1439 135.075 25.6323 134.691 25.2561C134.307 24.8799 133.706 24.6918 132.893 24.6918C132.291 24.6994 131.765 24.8423 131.306 25.1207C130.847 25.399 130.553 25.8504 130.418 26.4824H128.763C128.8 25.7978 128.996 25.226 129.342 24.752C129.688 24.278 130.17 23.9244 130.787 23.6837C131.403 23.4429 132.141 23.315 132.983 23.315C133.894 23.315 134.654 23.4429 135.263 23.6987C135.872 23.9545 136.324 24.3382 136.625 24.8348C136.926 25.3388 137.076 25.9482 137.076 26.678V34.0058H135.474L135.346 32.0347C134.939 32.8547 134.42 33.419 133.796 33.735C133.171 34.0585 132.487 34.2165 131.734 34.2165ZM132.306 32.8623C132.66 32.8623 133.006 32.7945 133.36 32.6667C133.706 32.5388 134.029 32.3657 134.323 32.1475C134.616 31.9294 134.842 31.6811 135.015 31.4027C135.188 31.1319 135.278 30.846 135.286 30.5526V28.7545L133.721 28.7846C132.923 28.7996 132.254 28.8824 131.719 29.0253C131.185 29.1758 130.779 29.409 130.508 29.725C130.237 30.041 130.109 30.4623 130.109 30.9739C130.109 31.5607 130.313 32.0196 130.726 32.3507C131.125 32.6967 131.652 32.8623 132.306 32.8623Z" fill="black"/>
<path d="M142.576 34.1413C142.004 34.1413 141.553 34.066 141.199 33.908C140.853 33.75 140.582 33.5394 140.394 33.2761C140.206 33.0127 140.085 32.7118 140.018 32.3657C139.95 32.0272 139.92 31.6736 139.92 31.3049V18.9289H141.771V31.1244C141.771 31.651 141.876 32.0497 142.079 32.3131C142.282 32.5764 142.576 32.7193 142.944 32.7494L143.516 32.7569V33.9757C143.358 34.0209 143.2 34.0585 143.027 34.0961C142.862 34.1262 142.711 34.1413 142.576 34.1413Z" fill="black"/>
<path d="M78.717 47.8038C78.717 48.9323 78.5289 49.8878 78.1602 50.6777C77.7916 51.4601 77.2048 52.062 76.4223 52.4683C75.6324 52.8745 74.6092 53.0852 73.3528 53.0852C72.0813 53.0852 71.0506 52.8745 70.2606 52.4532C69.4707 52.0319 68.8989 51.415 68.5378 50.6025C68.1767 49.7899 67.9961 48.7893 67.9961 47.6082V38.2039H69.9447V47.894C69.9447 49.0752 70.2381 49.963 70.8249 50.5498C71.4117 51.1366 72.2543 51.4301 73.3528 51.4301C74.0901 51.4301 74.7145 51.3022 75.2336 51.0464C75.7527 50.7906 76.1439 50.3993 76.4223 49.8727C76.6932 49.3461 76.8361 48.684 76.8361 47.8865V38.2039H78.7245V47.8038H78.717Z" fill="black"/>
<path d="M81.463 52.8821V42.3869H83.2762V43.9066C83.4492 43.6132 83.6824 43.3424 83.9834 43.0866C84.2843 42.8308 84.6529 42.6201 85.0818 42.4697C85.5106 42.3117 86.0072 42.2365 86.5714 42.2365C87.2335 42.2365 87.8429 42.3643 88.3996 42.6352C88.9563 42.8985 89.4077 43.3123 89.7388 43.869C90.0698 44.4258 90.2428 45.148 90.2428 46.0283V52.8896H88.362V46.2088C88.362 45.3888 88.1438 44.7794 87.715 44.3881C87.2861 43.9894 86.7294 43.7938 86.0448 43.7938C85.5708 43.7938 85.1269 43.869 84.7131 44.0195C84.2993 44.17 83.9683 44.4032 83.7125 44.7117C83.4567 45.0201 83.3288 45.4038 83.3288 45.8703V52.8821H81.463Z" fill="black"/>
<path d="M94.9751 38.2114V40.16H93.0566V38.2114H94.9751ZM94.9374 42.3869V52.8821H93.1243V42.3869H94.9374Z" fill="black"/>
<path d="M106.23 42.3869L102.446 52.8821H100.738L96.9387 42.3869H98.7067L101.498 50.5272H101.671L104.47 42.3869H106.23Z" fill="black"/>
<path d="M108.999 48.0671C108.999 48.7291 109.112 49.331 109.33 49.8652C109.548 50.4069 109.886 50.8282 110.338 51.1517C110.789 51.4677 111.354 51.6257 112.031 51.6257C112.7 51.6257 113.279 51.4677 113.761 51.1592C114.242 50.8507 114.551 50.3993 114.686 49.8125H116.462C116.334 50.5197 116.048 51.1216 115.612 51.6106C115.175 52.0996 114.641 52.4683 114.017 52.709C113.392 52.9573 112.745 53.0777 112.068 53.0777C111.09 53.0777 110.225 52.867 109.48 52.4382C108.735 52.0094 108.156 51.4 107.735 50.6025C107.313 49.805 107.103 48.8495 107.103 47.7285C107.103 46.6226 107.291 45.6596 107.675 44.8245C108.051 43.9894 108.6 43.3424 109.322 42.8759C110.044 42.4095 110.91 42.1763 111.925 42.1763C112.911 42.1763 113.746 42.3869 114.431 42.8157C115.115 43.2446 115.634 43.8389 115.988 44.6138C116.342 45.3888 116.522 46.3066 116.522 47.3674V48.0596H108.999V48.0671ZM109.014 46.8032H114.716C114.716 46.2013 114.619 45.6596 114.416 45.1706C114.212 44.6891 113.904 44.3054 113.49 44.027C113.076 43.7486 112.55 43.6057 111.925 43.6057C111.271 43.6057 110.729 43.7637 110.293 44.0797C109.864 44.3957 109.54 44.7944 109.33 45.2909C109.112 45.7724 109.006 46.2765 109.014 46.8032Z" fill="black"/>
<path d="M118.884 52.8821V42.3869H120.668V44.4032C120.841 43.9066 121.089 43.4853 121.405 43.1618C121.721 42.8308 122.089 42.59 122.496 42.4245C122.902 42.259 123.331 42.1838 123.767 42.1838C123.925 42.1838 124.076 42.1913 124.226 42.2139C124.377 42.2364 124.489 42.2665 124.572 42.3192V44.1323C124.474 44.0872 124.339 44.0496 124.181 44.0345C124.023 44.0195 123.888 44.012 123.782 44.012C123.361 43.9819 122.97 44.012 122.601 44.0872C122.232 44.1624 121.916 44.2979 121.638 44.4859C121.36 44.674 121.141 44.9223 120.983 45.2308C120.825 45.5392 120.743 45.9154 120.743 46.3517V52.8745H118.884V52.8821Z" fill="black"/>
<path d="M130.2 53.0852C129.47 53.0852 128.793 52.9724 128.168 52.7467C127.544 52.5209 127.025 52.1673 126.611 51.6783C126.197 51.1968 125.934 50.5799 125.829 49.8276H127.536C127.634 50.2414 127.8 50.5874 128.048 50.8583C128.296 51.1291 128.605 51.3398 128.973 51.4752C129.342 51.6106 129.748 51.6858 130.192 51.6858C130.899 51.6858 131.464 51.5579 131.9 51.2871C132.336 51.0238 132.547 50.6175 132.547 50.0683C132.547 49.6846 132.434 49.3762 132.208 49.1429C131.983 48.9097 131.629 48.7367 131.155 48.6313L128.981 48.0897C128.138 47.8865 127.461 47.5705 126.95 47.1342C126.445 46.6978 126.19 46.096 126.19 45.321C126.182 44.7041 126.325 44.1624 126.626 43.696C126.927 43.2295 127.371 42.8609 127.965 42.59C128.56 42.3192 129.304 42.1838 130.185 42.1838C131.321 42.1838 132.239 42.4396 132.938 42.9512C133.638 43.4628 133.999 44.2151 134.029 45.2007H132.374C132.306 44.7041 132.081 44.3054 131.697 44.012C131.313 43.7186 130.802 43.5681 130.162 43.5681C129.492 43.5681 128.951 43.7035 128.529 43.9668C128.108 44.2301 127.898 44.6515 127.898 45.2082C127.898 45.5844 128.048 45.8702 128.341 46.0884C128.642 46.2991 129.079 46.4796 129.658 46.6226L131.757 47.1492C132.246 47.2771 132.645 47.4502 132.961 47.6608C133.277 47.8715 133.525 48.1047 133.713 48.3605C133.901 48.6163 134.029 48.8871 134.112 49.1655C134.187 49.4439 134.232 49.7147 134.232 49.9705C134.232 50.61 134.074 51.1667 133.751 51.6332C133.427 52.0996 132.968 52.4532 132.374 52.709C131.78 52.9573 131.057 53.0852 130.2 53.0852Z" fill="black"/>
<path d="M138.724 38.2114V40.16H136.805V38.2114H138.724ZM138.686 42.3869V52.8821H136.873V42.3869H138.686Z" fill="black"/>
<path d="M147.052 43.7562H144.69V50.279C144.69 50.6476 144.727 50.926 144.81 51.099C144.885 51.2721 145.021 51.3849 145.209 51.43C145.397 51.4752 145.653 51.4978 145.976 51.4978H147.12V52.7542C146.992 52.7993 146.796 52.8444 146.541 52.8745C146.277 52.9122 145.954 52.9272 145.57 52.9272C144.848 52.9272 144.284 52.8294 143.885 52.6338C143.486 52.4382 143.208 52.1448 143.05 51.7611C142.892 51.3774 142.809 50.9034 142.809 50.3392V43.7486H141.101V42.3794H142.854L143.313 39.3249H144.69V42.3719H147.052V43.7562Z" fill="black"/>
<path d="M150.648 56.23C150.031 56.23 149.497 56.1397 149.038 55.9667V54.7479L150.107 54.7705C150.498 54.7855 150.821 54.7554 151.077 54.6877C151.333 54.62 151.544 54.5297 151.694 54.4169C151.852 54.304 151.972 54.1761 152.055 54.0332C152.138 53.8902 152.206 53.7548 152.266 53.6269L152.634 52.6338L148.534 42.3944H150.43L153.522 50.4896L156.599 42.3944H158.435L154.011 53.6796C153.74 54.3416 153.44 54.8607 153.101 55.2294C152.762 55.598 152.394 55.8614 151.987 56.0118C151.574 56.1548 151.13 56.23 150.648 56.23Z" fill="black"/>
<path d="M44.1995 1.57239C44.2898 3.55105 44.5832 10.3823 44.5832 18.7483C44.5832 28.9351 43.9137 34.367 42.1231 38.7907C41.2579 40.9274 40.1519 42.5449 38.557 44.0421C37.12 45.3812 35.2166 46.6978 31.9966 48.5787C29.5289 50.0157 27.5578 50.9862 25.9778 51.5354C24.5484 52.0319 23.6907 52.0996 23.1114 52.0996C22.5246 52.0996 21.6744 52.0319 20.245 51.5354C18.6576 50.9787 16.6939 50.0157 14.2263 48.5787C10.9987 46.6978 9.10282 45.3888 7.66585 44.0421C6.07089 42.5524 4.96494 40.9274 4.09975 38.7907C2.30165 34.367 1.63959 28.9351 1.63959 18.7483C1.63959 10.3898 1.93301 3.5661 2.02329 1.57992L44.1995 1.57239ZM1.51922 0.54921C1.39885 0.54921 1.27847 0.586827 1.18819 0.662061C1.09039 0.752342 1.0302 0.865193 1.02267 0.993091C1.02267 1.06833 0.608887 8.80992 0.608887 18.7408C0.608887 29.078 1.29352 34.6077 3.14428 39.1669C5.01761 43.7938 7.92164 46.0734 13.6996 49.4439C19.2369 52.6714 21.5541 53.1003 23.0964 53.1003C24.6387 53.1003 26.9559 52.6639 32.4931 49.4439C38.2786 46.0734 41.1751 43.7938 43.0485 39.1669C44.8992 34.6077 45.5839 29.078 45.5839 18.7408C45.5839 8.80992 45.1776 1.06833 45.1701 0.993091C45.1776 0.865193 45.1249 0.752342 45.0271 0.662061C44.9368 0.579303 44.8089 0.54921 44.6886 0.54921C44.681 0.54921 1.64712 0.54921 1.51922 0.54921Z" fill="#BF872B"/>
<path d="M36.1044 13.0607L35.6229 11.6989L35.1414 13.0381L33.7044 13.0907L34.848 13.9785L34.4342 15.3478L35.6154 14.5352L36.8041 15.3478L36.3978 13.9635L37.5413 13.0907L36.1044 13.0607Z" fill="#BF872B"/>
<path d="M34.4266 20.7646L35.5175 21.7728L35.4122 20.2906L36.8792 20.0649L35.6529 19.2298L36.3902 17.9433L34.9758 18.3797L34.4266 16.9954L33.8849 18.3797L32.463 17.9433L33.2003 19.2298L31.9815 20.0649L33.4486 20.2906L33.3357 21.7728L34.4266 20.7646Z" fill="#BF872B"/>
<path d="M40.3476 12.6243L41.4385 13.6324L41.3256 12.1503L42.7927 11.9246L41.5739 11.0895L42.3112 9.80301L40.8893 10.2394L40.3476 8.85506L39.7984 10.2394L38.384 9.80301L39.1213 11.0895L37.895 11.9246L39.362 12.1503L39.2567 13.6324L40.3476 12.6243Z" fill="#BF872B"/>
<path d="M35.0511 7.07201L36.142 8.08015L36.0291 6.59804L37.4962 6.37986L36.2774 5.53723L37.0147 4.25073L35.5928 4.68709L35.0511 3.30278L34.5094 4.68709L33.0875 4.25073L33.8248 5.53723L32.5984 6.37986L34.0655 6.59804L33.9602 8.08015L35.0511 7.07201Z" fill="#BF872B"/>
<path d="M28.7991 11.887L29.89 12.8876L29.7772 11.413L31.2442 11.1873L30.0179 10.3522L30.7627 9.06572L29.3408 9.49455L28.7991 8.11777L28.2499 9.49455L26.8355 9.06572L27.5728 10.3522L26.3465 11.1873L27.8136 11.413L27.7082 12.8876L28.7991 11.887Z" fill="#BF872B"/>
<path d="M34.4793 24.2856C28.4756 21.4192 24.4431 19.3803 22.9911 19.3803C21.539 19.3803 17.7397 21.4192 11.736 24.2856C5.73234 27.1595 3.68597 27.7689 3.68597 29.0253C3.68597 30.2817 5.16056 29.6874 5.60444 29.552C6.05585 29.4165 21.366 24.4661 22.9911 24.4661C24.6161 24.4661 40.1595 29.4241 40.6109 29.552C41.0623 29.6874 42.5294 30.2817 42.5294 29.0253C42.5294 27.7689 40.483 27.1595 34.4793 24.2856Z" fill="#BF872B"/>
<path d="M37.9326 33.6673C35.3295 34.54 33.2605 36.4434 30.3791 35.9017C27.8512 35.4277 25.7522 33.246 23.1039 33.276C20.1999 33.3137 18.003 35.8114 15.1592 36.0522C12.3605 36.2854 10.1787 34.0209 7.56807 33.4867C6.3869 33.246 5.34867 33.4039 4.3631 33.7425C4.56623 34.713 4.79193 35.6083 5.06278 36.4509C5.83769 36.2628 6.65774 36.2102 7.56807 36.3983C10.1787 36.9324 12.3605 39.197 15.1592 38.9638C18.0106 38.723 20.1999 36.2252 23.1039 36.1876C25.7597 36.1575 27.8587 38.3393 30.3791 38.8133C33.2605 39.355 35.3295 37.4515 37.9326 36.5788C39.0987 36.1876 40.1369 36.2252 41.1225 36.466C41.3933 35.6234 41.619 34.7281 41.8222 33.7575C40.6184 33.3513 39.3695 33.1858 37.9326 33.6673Z" fill="#BF872B"/>
<path d="M37.9325 39.4979C35.3294 40.3706 33.2605 42.2741 30.379 41.7324C27.8512 41.2584 25.7521 39.0766 23.1039 39.1067C20.1998 39.1443 18.003 41.6421 15.1592 41.8828C12.3604 42.1161 10.1787 39.8515 7.56803 39.3174C7.07148 39.2196 6.60503 39.1819 6.15363 39.212C6.74798 40.4007 7.47775 41.4239 8.38056 42.3568C8.41065 42.3869 8.44074 42.4095 8.47084 42.4245C8.76425 42.5675 10.284 43.3048 11.0363 43.6809C12.3228 44.328 13.6695 44.9223 15.1516 44.8019C18.003 44.5612 20.1923 42.0634 23.0964 42.0258C25.7521 41.9957 27.8512 44.1775 30.3715 44.6515C32.132 44.9825 33.6216 44.3881 35.0812 43.6809C35.841 43.3123 37.4661 42.5073 37.767 42.3568C37.8046 42.3418 37.8347 42.3192 37.8573 42.2891C38.715 41.3863 39.4523 40.3631 40.024 39.2196C39.3695 39.1669 38.6773 39.2421 37.9325 39.4979Z" fill="#BF872B"/>
<path d="M15.9416 47.5856C17.1002 48.2401 18.1309 48.7743 19.0488 49.1881C20.3353 48.5185 21.6293 47.864 23.1039 47.8489C24.5785 47.8339 25.88 48.4959 27.1816 49.173C28.107 48.7442 29.1452 48.21 30.3188 47.548C27.8211 47.0439 25.7371 44.9073 23.1114 44.9374C20.4707 44.9675 18.4243 47.0213 15.9416 47.5856Z" fill="#BF872B"/>
<path d="M32.4931 30.0636C29.416 29.1231 27.317 28.5137 25.88 28.1075C24.5108 27.7238 23.8713 27.5808 23.45 27.4755C23.3221 27.4454 23.1114 27.4003 23.0437 27.3927C22.9459 27.4078 22.818 27.4379 22.645 27.4755C22.2914 27.5583 21.7421 27.6937 20.907 27.9269C19.4851 28.3181 17.213 28.9802 13.6018 30.1012C12.4432 30.4623 11.1417 30.8686 9.68964 31.3275C11.4652 32.1701 13.1655 33.3061 15.1893 33.1406C18.0406 32.8999 20.2299 30.4021 23.134 30.3645C25.7897 30.3344 27.8888 32.5162 30.4091 32.9902C32.7564 33.434 34.562 32.2529 36.5633 31.3275C35.0435 30.846 33.6893 30.4322 32.4931 30.0636Z" fill="#BF872B"/>
</g>
</g>
</g>
<defs>
<clipPath id="clip0_1_5">
<rect width="160" height="56.23" fill="white" transform="translate(0.5)"/>
</clipPath>
<clipPath id="clip1_1_5">
<rect width="160" height="56.23" fill="white" transform="translate(0.5)"/>
</clipPath>
<clipPath id="clip2_1_5">
<rect width="159.948" height="56.23" fill="white" transform="translate(0.526123)"/>
</clipPath>
</defs>
</svg>
