<svg width="80" height="38" viewBox="0 0 80 38" fill="none" xmlns="http://www.w3.org/2000/svg">
<g clip-path="url(#clip0_1_387)">
<g clip-path="url(#clip1_1_387)">
<g clip-path="url(#clip2_1_387)">
<path d="M45.2291 36.6373L53.1983 36.5838L59.4025 36.5304L59.3491 30.7273L55.7656 30.754L61.7826 23.1859L67.9334 30.647L64.3499 30.6738L64.4034 36.4769L78.4966 36.3699L78.4431 30.5668L75.7956 30.5935L65.6603 18.3188L75.2073 6.33822L78.2292 6.31147L78.1757 0.64209L64.0825 0.749059L64.1359 6.41844L67.345 6.3917L61.7024 13.4784L55.926 6.47193L59.1351 6.44518L59.0816 0.802544L48.5451 0.882771L44.9349 0.909514M44.9349 0.909514L39.1051 0.962998L39.1586 6.63238L42.9292 6.60564L42.9827 11.4728C40.7898 9.92169 38.0889 9.01245 35.1472 9.03919C31.1091 9.06594 27.4989 10.8309 24.9851 13.6121C22.4713 10.8844 18.9146 9.17291 14.8765 9.19965C8.05719 9.25313 2.41455 14.254 1.34485 20.7791C1.21114 21.5546 1.15765 22.3569 1.15765 23.1592C1.15765 23.9347 1.23788 24.6567 1.34485 25.4055C2.46803 31.9841 8.21764 36.9582 15.0904 36.878C19.1285 36.8513 22.6585 35.0863 25.0921 32.3051C27.6326 35.0328 31.2963 36.7443 35.3344 36.7176C38.2761 36.6908 40.9503 35.7548 43.1432 34.1503L43.1699 36.6373L45.2291 36.6106M21.883 19.1746C21.7493 19.6292 21.6423 20.1105 21.5621 20.5919L7.17469 20.6989C8.16416 17.4363 11.2128 15.0027 14.8497 14.976C17.9519 14.9493 20.5459 16.6608 21.883 19.1746ZM22.5248 28.3739H20.8935C19.4762 30.032 17.3903 31.1017 15.0102 31.1284C11.3198 31.1551 8.1909 28.7216 7.20143 25.352L21.5888 25.2451M21.5888 25.2183C21.6691 25.7532 21.8028 26.2613 21.9365 26.7694C22.0969 27.3042 22.2841 27.8391 22.4981 28.3472M27.4187 25.1916H28.3546C28.4616 24.4695 28.5151 23.7208 28.5151 22.9452C28.5151 22.143 28.4349 21.3407 28.3012 20.5652C28.2209 20.0838 28.114 19.6292 27.9803 19.1746C29.3174 16.6073 31.9916 14.8423 35.0937 14.8155C39.5597 14.7888 43.0095 18.3723 43.0629 22.8383V22.8917C43.0897 27.331 39.6934 30.9412 35.2274 30.9947C32.1253 31.0214 29.4243 29.3099 28.0605 26.7426C27.7931 26.2345 27.5791 25.7264 27.4187 25.1916ZM48.7858 29.6843L48.5986 7.22071ZM48.5986 7.22071L57.798 18.3723L48.7858 29.6843" fill="white"/>
</g>
</g>
</g>
<defs>
<clipPath id="clip0_1_387">
<rect width="78.89" height="37.44" fill="white" transform="translate(0.809998)"/>
</clipPath>
<clipPath id="clip1_1_387">
<rect width="78.89" height="37.44" fill="white" transform="translate(0.809998)"/>
</clipPath>
<clipPath id="clip2_1_387">
<rect width="78.89" height="37.4393" fill="white" transform="translate(0.809998 0.000488281)"/>
</clipPath>
</defs>
</svg>
