<svg width="123" height="39" viewBox="0 0 123 39" fill="none" xmlns="http://www.w3.org/2000/svg">
<g clip-path="url(#clip0_1_352)">
<g clip-path="url(#clip1_1_352)">
<g clip-path="url(#clip2_1_352)">
<path d="M66.2731 29.7252H64.0057C63.8943 29.7281 63.785 29.6945 63.6944 29.6296C63.6038 29.5646 63.5369 29.4719 63.5037 29.3655L61.648 24.0192H51.0643L49.2069 29.3738C49.1706 29.4783 49.1029 29.569 49.013 29.6334C48.9231 29.6978 48.8155 29.7328 48.7049 29.7336H46.4342L53.1977 10.4703C53.358 10.0171 53.6545 9.62456 54.0467 9.34654C54.4388 9.06853 54.9074 8.91865 55.3881 8.91748H58.6846C58.7523 8.91741 58.8189 8.93515 58.8776 8.96893C58.9364 9.0027 58.9852 9.05132 59.0192 9.10991L66.2731 29.7252ZM60.8181 21.6347L57.2171 11.3003H55.8583C55.7476 11.3003 55.6396 11.3351 55.5496 11.3996C55.4595 11.4641 55.392 11.5552 55.3563 11.6601L51.8909 21.6347H60.8181Z" fill="white"/>
<path d="M84.5424 13.6262V16.3705C84.5389 17.6198 84.0409 18.817 83.1573 19.7003C82.2737 20.5836 81.0764 21.0811 79.827 21.0842H73.7629C73.4061 21.1241 73.047 21.0339 72.7515 20.83C72.456 20.6262 72.2441 20.3225 72.1548 19.9748V29.3688C72.1531 29.4643 72.1141 29.5553 72.0463 29.6225C71.9785 29.6897 71.8872 29.7277 71.7917 29.7286H69.5478V10.5255C69.5478 10.3142 69.5894 10.105 69.6703 9.90978C69.7513 9.71457 69.8699 9.53722 70.0194 9.38788C70.1689 9.23854 70.3463 9.12012 70.5416 9.03941C70.7369 8.95869 70.9462 8.91726 71.1575 8.91748H79.827C81.0755 8.92013 82.2721 9.41692 83.1554 10.2993C84.0387 11.1816 84.5384 12.3777 84.5424 13.6262ZM81.9371 13.4037C81.9371 13.1269 81.8824 12.8528 81.7763 12.5972C81.6702 12.3416 81.5147 12.1094 81.3186 11.914C81.1226 11.7186 80.8899 11.5638 80.634 11.4585C80.378 11.3532 80.1038 11.2994 79.827 11.3003H72.6819C72.6125 11.3001 72.5437 11.3136 72.4795 11.3401C72.4154 11.3666 72.3571 11.4056 72.3081 11.4548C72.2591 11.5039 72.2203 11.5623 72.194 11.6266C72.1677 11.6908 72.1544 11.7596 72.1548 11.8291V18.1726C72.159 18.3109 72.216 18.4424 72.314 18.5401C72.412 18.6378 72.5436 18.6943 72.6819 18.698H79.827C80.1036 18.6983 80.3776 18.644 80.6333 18.5383C80.889 18.4327 81.1214 18.2777 81.3172 18.0822C81.5129 17.8867 81.6683 17.6546 81.7744 17.3991C81.8805 17.1436 81.9352 16.8697 81.9354 16.593L81.9371 13.4037Z" fill="white"/>
<path d="M90.7471 19.7455V29.3571C90.7454 29.4524 90.7067 29.5433 90.6393 29.6108C90.5719 29.6782 90.481 29.7168 90.3857 29.7185H88.1417V10.5238C88.1417 10.3127 88.1833 10.1036 88.2641 9.90846C88.3449 9.71336 88.4634 9.53609 88.6127 9.38677C88.762 9.23745 88.9393 9.119 89.1344 9.03819C89.3295 8.95737 89.5386 8.91578 89.7498 8.91578H98.4511C99.0607 8.86788 99.6736 8.94839 100.25 9.15211C100.827 9.35583 101.354 9.67823 101.798 10.0985C102.243 10.5187 102.594 11.0275 102.829 11.5919C103.065 12.1563 103.179 12.7638 103.165 13.3752V16.0642C103.144 17.1105 102.753 18.1156 102.063 18.902C101.373 19.6883 100.426 20.2052 99.3915 20.3613L103.827 29.7319H101.413C101.308 29.7219 101.207 29.6861 101.12 29.6277C101.032 29.5693 100.96 29.4901 100.911 29.3972L96.6974 20.4985H92.3468C91.5687 20.4985 90.9881 20.2776 90.7939 19.7539L90.7471 19.7455ZM98.4444 18.109C99.0033 18.1086 99.5391 17.8862 99.9341 17.4909C100.329 17.0955 100.551 16.5595 100.551 16.0006V13.402C100.551 13.1255 100.497 12.8518 100.391 12.5965C100.285 12.3412 100.129 12.1093 99.9337 11.9141C99.7381 11.7188 99.5058 11.5641 99.2502 11.4588C98.9946 11.3535 98.7208 11.2996 98.4444 11.3003H91.2742C91.2049 11.3 91.1363 11.3135 91.0722 11.3399C91.0082 11.3663 90.95 11.4052 90.901 11.4542C90.852 11.5031 90.8132 11.5613 90.7868 11.6254C90.7604 11.6894 90.7469 11.7581 90.7471 11.8274V17.5869C90.7467 17.6564 90.76 17.7252 90.7863 17.7894C90.8126 17.8537 90.8514 17.9121 90.9004 17.9612C90.9494 18.0104 91.0077 18.0494 91.0718 18.0759C91.136 18.1024 91.2048 18.1159 91.2742 18.1157L98.4444 18.109Z" fill="white"/>
<path d="M107.179 25.0162V8.91553H109.423C109.518 8.91679 109.609 8.95477 109.677 9.02151C109.744 9.08826 109.784 9.1786 109.786 9.27362V25.2321C109.785 25.5087 109.839 25.7828 109.945 26.0386C110.05 26.2943 110.205 26.5268 110.4 26.7226C110.596 26.9185 110.828 27.0739 111.083 27.1799C111.339 27.2859 111.613 27.3405 111.89 27.3405H118.146C118.423 27.3407 118.697 27.2863 118.953 27.1804C119.209 27.0746 119.442 26.9193 119.637 26.7234C119.833 26.5276 119.989 26.2951 120.094 26.0392C120.2 25.7833 120.255 25.509 120.254 25.2321V9.27362C120.257 9.17932 120.295 9.08947 120.362 9.02277C120.428 8.95607 120.518 8.91766 120.613 8.91553H122.858V25.0162C122.854 26.2641 122.356 27.4596 121.473 28.3415C120.59 29.2235 119.394 29.7202 118.146 29.7233H111.89C111.271 29.7242 110.658 29.603 110.087 29.3668C109.515 29.1306 108.996 28.784 108.558 28.3468C108.12 27.9096 107.773 27.3903 107.537 26.8188C107.3 26.2473 107.179 25.6348 107.179 25.0162Z" fill="white"/>
<path d="M27.8804 28.7812C27.0137 29.5433 26.0478 30.1844 25.009 30.6871C28.4708 29.8 31.5913 27.9048 33.9745 25.2418C36.3578 22.5788 37.8965 19.268 38.3955 15.7293C38.1759 14.5395 37.8431 13.3735 37.4016 12.2471C37.4016 12.4144 37.4016 12.5817 37.4016 12.7491C37.4026 16.033 36.517 19.2563 34.8382 22.0787C33.1594 24.9011 30.7498 27.2179 27.8636 28.7845" fill="white"/>
<path d="M38.7252 19.6955C37.4711 22.7373 35.4423 25.3978 32.8407 27.412C30.239 29.4262 27.1552 30.724 23.8962 31.1761C22.2178 31.7884 20.4297 32.0424 18.6471 31.9216C16.8646 31.8008 15.1271 31.308 13.5466 30.4749C11.9661 29.6418 10.5777 28.4868 9.47071 27.0844C8.36374 25.6821 7.56279 24.0634 7.11946 22.3326C7.15744 25.5797 7.94363 28.7742 9.41693 31.6681L9.43199 31.6948C10.352 33.5697 11.6645 35.2247 13.2806 36.5475C13.8175 37.0634 14.3799 37.552 14.9657 38.0116C15.5625 38.1544 16.1705 38.266 16.7896 38.3463L17.0272 38.3798C17.1142 38.3898 17.1945 38.3982 17.2849 38.4099C17.4757 38.4316 17.6631 38.45 17.8538 38.4668H17.8823C18.42 38.5125 18.9632 38.5354 19.5121 38.5354C20.2951 38.5354 21.0774 38.4879 21.8547 38.3932L21.8112 38.3814L21.915 38.3681L21.8547 38.3045C20.7791 38.0533 19.7178 37.7444 18.6754 37.3791C16.8422 36.6826 15.0967 35.774 13.4747 34.6717C14.9631 35.5268 16.5537 36.1902 18.2086 36.6462C18.3274 36.678 18.4479 36.7098 18.5667 36.7382L18.7106 36.7751C21.4019 37.4234 24.1975 37.5134 26.9249 37.0394C29.619 35.9039 32.0203 34.1718 33.9478 31.9736C35.8753 29.7754 37.2788 27.1683 38.0525 24.349C38.4644 22.8292 38.6892 21.2647 38.7218 19.6904" fill="white"/>
<path d="M6.4903 22.4496C6.49065 21.4929 6.55662 20.5374 6.68775 19.5898C6.68775 19.4844 6.68775 19.379 6.68775 19.2702C6.68291 16.6162 7.51107 14.0275 9.0555 11.8691C7.00203 13.5569 5.34824 15.679 4.21316 18.0825C3.07808 20.4861 2.48994 23.1113 2.49106 25.7694C2.49153 26.8286 2.58448 27.8857 2.76883 28.9287C5.05249 32.8571 8.64766 35.8551 12.9226 37.3957C10.8882 35.473 9.26823 33.1549 8.16213 30.5836C7.05602 28.0123 6.4871 25.242 6.4903 22.4429" fill="white"/>
<path d="M10.8861 9.81249C11.745 9.03607 12.706 8.38075 13.7425 7.86475C10.3116 8.77143 7.22437 10.6698 4.86708 13.3224C2.50979 15.9749 0.987171 19.2638 0.489761 22.7774C0.695725 23.9122 1.00547 25.0258 1.41511 26.104C1.42702 26.1415 1.44099 26.1784 1.45694 26.2144L1.48204 26.2713C1.48204 26.104 1.472 25.9366 1.472 25.7777C1.47144 22.5181 2.3444 19.318 4.00004 16.5102C5.65569 13.7024 8.03352 11.3896 10.8861 9.81249Z" fill="white"/>
<path d="M32.3933 16.0342C32.3933 16.9858 32.3279 17.9363 32.1975 18.8789C32.1975 18.9826 32.1975 19.088 32.1975 19.1951C32.2041 21.9252 31.3264 24.5839 29.6959 26.7736C32.2057 24.7453 34.1257 22.0812 35.2561 19.0587C36.3865 16.0363 36.6859 12.7661 36.1232 9.5886C33.8386 5.66609 30.2464 2.67278 25.9761 1.1333C28.0053 3.04819 29.6214 5.35791 30.725 7.92045C31.8286 10.483 32.3963 13.2442 32.3933 16.0342Z" fill="white"/>
<path d="M14.9456 7.35447C16.382 6.79356 17.9115 6.50967 19.4535 6.51781C22.2843 6.51849 25.0337 7.465 27.2651 9.20702C29.4964 10.949 31.0817 13.3867 31.7692 16.1327C31.7214 12.9076 30.9367 9.73611 29.4751 6.86084C28.3747 4.97138 27.0018 3.25449 25.4005 1.76558C24.7898 1.27045 24.142 0.822922 23.4628 0.42692H23.4511C21.8567 0.0913264 20.2261 -0.0402471 18.5985 0.0353625C17.7233 0.0738489 17.1092 0.154168 17.1092 0.154168C18.1819 0.40672 19.2404 0.716164 20.2801 1.08119C22.1178 1.8111 23.8638 2.75345 25.4825 3.88902C24.598 3.38108 23.68 2.93383 22.7349 2.55037C19.3416 1.23516 15.6564 0.859415 12.0675 1.46271C8.61615 2.88738 5.65409 5.28576 3.54266 8.36525C1.43123 11.4447 0.261737 15.0722 0.176849 18.805C1.42925 15.7762 3.45046 13.1268 6.04065 11.1185C8.63083 9.1103 11.7003 7.81286 14.9456 7.35447Z" fill="white"/>
<path d="M22.6111 2.49023C22.6529 2.50697 22.6931 2.52537 22.7349 2.54043C22.7453 2.5466 22.7566 2.55111 22.7684 2.55382C22.7165 2.53541 22.663 2.51199 22.6111 2.49023Z" fill="white"/>
</g>
</g>
</g>
<defs>
<clipPath id="clip0_1_352">
<rect width="122.72" height="38.55" fill="white" transform="translate(0.160004)"/>
</clipPath>
<clipPath id="clip1_1_352">
<rect width="122.72" height="38.55" fill="white" transform="translate(0.160004)"/>
</clipPath>
<clipPath id="clip2_1_352">
<rect width="122.686" height="38.55" fill="white" transform="translate(0.176849)"/>
</clipPath>
</defs>
</svg>
