<svg width="161" height="57" viewBox="0 0 161 57" fill="none" xmlns="http://www.w3.org/2000/svg">
<g clip-path="url(#clip0_1_435)">
<g clip-path="url(#clip1_1_435)">
<g clip-path="url(#clip2_1_435)">
<path d="M74.0813 2.26506L76.581 9.34513H71.5526L74.0813 2.26506ZM73.0094 0.405273L67.6926 15.096H69.6017L71.0746 11.0731H77.0773L78.5201 15.096H80.441L75.1296 0.405273H73.0094Z" fill="white"/>
<path d="M85.9175 15.2998C85.3919 15.2965 84.8696 15.216 84.3675 15.0607C83.9004 14.9178 83.4641 14.6887 83.0812 14.3854C82.7077 14.0861 82.4074 13.7056 82.2033 13.2727C81.9805 12.7873 81.8706 12.2578 81.8817 11.7238V4.59229H83.7608V11.5309C83.7484 11.8371 83.7983 12.1426 83.9076 12.429C84.0169 12.7153 84.1832 12.9765 84.3964 13.1966C84.6563 13.4268 84.9598 13.6023 85.2888 13.7128C85.6179 13.8233 85.9659 13.8665 86.312 13.8398C86.9862 13.872 87.6491 13.6571 88.176 13.2352C88.4209 13.0066 88.6114 12.7259 88.7335 12.4139C88.8556 12.1018 88.9061 11.7664 88.8814 11.4322V4.59229H90.7508V15.0972H89.2597L89.0668 13.0852C88.9735 13.5433 88.7616 13.9689 88.4521 14.3194C88.1426 14.6698 87.7466 14.9329 87.3035 15.0821C86.8577 15.2348 86.3885 15.3074 85.9175 15.2965" fill="white"/>
<path d="M97.2113 15.2995C96.5179 15.3054 95.8287 15.1904 95.1747 14.9597C94.5702 14.7456 94.033 14.3759 93.6172 13.8878C93.1837 13.358 92.912 12.7145 92.8347 12.0344H94.5412C94.6199 12.4167 94.7965 12.7719 95.0535 13.0656C95.3081 13.3449 95.6272 13.5576 95.9829 13.6852C96.3738 13.8269 96.787 13.8973 97.2028 13.8931C97.7971 13.9199 98.3873 13.7831 98.9093 13.4976C99.1191 13.3735 99.2906 13.194 99.4052 12.9788C99.5198 12.7636 99.5729 12.5211 99.5588 12.2777C99.567 12.108 99.5411 11.9384 99.4827 11.7788C99.4244 11.6192 99.3347 11.4728 99.219 11.3484C98.9251 11.0804 98.5606 10.9022 98.1686 10.8349L95.9936 10.299C95.2488 10.1461 94.5508 9.81875 93.957 9.34388C93.7005 9.11746 93.4987 8.83586 93.3667 8.52024C93.2347 8.20462 93.1759 7.86319 93.1948 7.5216C93.1771 6.9485 93.3297 6.38301 93.6332 5.89657C93.9609 5.40338 94.4271 5.01812 94.9732 4.78927C95.6777 4.49742 96.4363 4.35893 97.1985 4.38301C98.1763 4.33689 99.1431 4.60592 99.9565 5.1505C100.306 5.41038 100.588 5.75064 100.778 6.14247C100.968 6.53431 101.061 6.96619 101.049 7.40155H99.3991C99.3719 7.16877 99.2979 6.94388 99.1817 6.74035C99.0655 6.53682 98.9094 6.35885 98.7227 6.21707C98.2738 5.90193 97.7322 5.74643 97.1845 5.77544C96.6126 5.75042 96.0454 5.88953 95.5498 6.17634C95.3428 6.30817 95.1749 6.49324 95.0638 6.71217C94.9528 6.93111 94.9026 7.17586 94.9185 7.42084C94.9129 7.59316 94.9509 7.7641 95.029 7.91777C95.1072 8.07145 95.2229 8.20287 95.3655 8.29982C95.7694 8.55818 96.2174 8.73987 96.6872 8.83579L98.7892 9.36425C99.2166 9.46334 99.6249 9.63133 99.9983 9.86162C100.288 10.0494 100.542 10.2867 100.749 10.5627C100.928 10.8064 101.062 11.0801 101.144 11.3709C101.219 11.6335 101.258 11.905 101.261 12.178C101.277 12.7685 101.108 13.3493 100.779 13.8395C100.431 14.3225 99.9512 14.6947 99.397 14.9115C98.7033 15.1826 97.9623 15.312 97.2178 15.292" fill="white"/>
<path d="M108.788 5.96289H106.419V12.4952C106.404 12.7728 106.444 13.0507 106.536 13.3131C106.571 13.3952 106.626 13.4679 106.694 13.5253C106.763 13.5826 106.844 13.623 106.932 13.6432C107.184 13.6979 107.441 13.722 107.699 13.7151H108.847V14.9746C108.657 15.0351 108.462 15.076 108.264 15.0968C107.942 15.1335 107.618 15.1504 107.294 15.1471C106.717 15.1748 106.14 15.0742 105.607 14.8524C105.227 14.6773 104.928 14.3653 104.768 13.9787C104.597 13.5245 104.516 13.0414 104.529 12.5563V5.96289H102.823V4.5919H104.581L105.036 1.53369H106.419V4.58118H108.788V5.96289Z" fill="white"/>
<path d="M111.286 15.0972V4.59234H113.076V6.61399C113.229 6.15014 113.482 5.72539 113.817 5.36949C114.124 5.0488 114.496 4.79769 114.909 4.63307C115.315 4.47112 115.748 4.38816 116.184 4.38867C116.337 4.3886 116.49 4.39898 116.641 4.41976C116.762 4.43129 116.879 4.46547 116.987 4.52052V6.34279C116.863 6.28994 116.731 6.25736 116.596 6.24632C116.463 6.23082 116.329 6.22223 116.195 6.2206C115.8 6.19227 115.404 6.21787 115.016 6.2967C114.671 6.36627 114.343 6.50284 114.051 6.69867C113.773 6.88882 113.547 7.14713 113.396 7.44902C113.227 7.79877 113.145 8.18409 113.156 8.5724V15.1047L111.286 15.0972Z" fill="white"/>
<path d="M121.598 15.2996C120.979 15.3116 120.365 15.1887 119.799 14.9394C119.299 14.7174 118.874 14.3561 118.574 13.8985C118.269 13.4048 118.115 12.8323 118.132 12.2521C118.097 11.75 118.191 11.2474 118.405 10.7917C118.618 10.3359 118.944 9.94206 119.352 9.64729C120.544 8.98026 121.899 8.66332 123.263 8.73294L125.142 8.68255V7.8636C125.157 7.58273 125.113 7.30191 125.014 7.03883C124.914 6.77576 124.761 6.53612 124.565 6.33504C124.062 5.91882 123.416 5.71605 122.765 5.77013C122.206 5.76548 121.656 5.91375 121.175 6.1989C120.94 6.35029 120.739 6.54972 120.586 6.78413C120.433 7.01854 120.331 7.28266 120.287 7.55918H118.631C118.65 6.93796 118.851 6.33611 119.209 5.82802C119.579 5.33863 120.082 4.96639 120.658 4.75609C121.361 4.49722 122.107 4.37286 122.856 4.38949C123.635 4.36553 124.41 4.49708 125.137 4.77646C125.702 4.9992 126.18 5.39803 126.5 5.91377C126.816 6.47744 126.972 7.11687 126.951 7.76284V15.098H125.343L125.211 13.1268C124.895 13.8488 124.35 14.4469 123.661 14.829C123.019 15.1473 122.311 15.3089 121.594 15.3006M122.163 13.95C122.521 13.949 122.877 13.8837 123.213 13.7571C123.559 13.6312 123.884 13.455 124.178 13.234C124.453 13.031 124.689 12.7797 124.875 12.4922C125.039 12.2392 125.132 11.946 125.142 11.6443V9.84452L123.577 9.87454C122.901 9.87291 122.228 9.955 121.572 10.1189C121.107 10.2245 120.685 10.469 120.362 10.82C120.082 11.175 119.94 11.6186 119.961 12.0698C119.949 12.3323 119.998 12.594 120.106 12.8338C120.213 13.0736 120.375 13.2848 120.579 13.4505C121.034 13.7977 121.597 13.9741 122.169 13.9489" fill="white"/>
<path d="M132.448 15.2288C131.978 15.2463 131.509 15.1668 131.071 14.9952C130.751 14.8626 130.473 14.6446 130.268 14.3649C130.079 14.0925 129.951 13.7824 129.893 13.4559C129.828 13.1059 129.796 12.7506 129.797 12.3947V0H131.646V12.2114C131.615 12.6308 131.724 13.0486 131.955 13.4001C132.059 13.5317 132.191 13.6389 132.341 13.7143C132.491 13.7897 132.656 13.8313 132.824 13.8364L133.392 13.8471V15.0659C133.232 15.1146 133.069 15.1537 132.904 15.1828C132.754 15.2119 132.601 15.2273 132.448 15.2288Z" fill="white"/>
<path d="M137.61 2.36692H135.693V0.416016H137.614L137.61 2.36692ZM137.568 15.0971H135.746V4.59224H137.568V15.0971Z" fill="white"/>
<path d="M143.572 15.2995C142.954 15.3117 142.34 15.1888 141.774 14.9393C141.274 14.7174 140.849 14.356 140.549 13.8985C140.244 13.4047 140.091 12.8322 140.108 12.252C140.072 11.75 140.166 11.2474 140.379 10.7916C140.592 10.3358 140.918 9.94193 141.326 9.64725C142.517 8.98266 143.872 8.66725 145.234 8.73718L147.114 8.6868V7.86356C147.128 7.58254 147.084 7.30162 146.984 7.03854C146.884 6.77545 146.731 6.5359 146.534 6.33499C146.032 5.91849 145.386 5.71565 144.736 5.77009C144.177 5.76557 143.627 5.91382 143.145 6.19886C142.91 6.35046 142.71 6.54997 142.557 6.78435C142.404 7.01874 142.302 7.28275 142.258 7.55913H140.6C140.61 6.9403 140.81 6.33957 141.173 5.83823C141.536 5.33688 142.044 4.95912 142.629 4.75605C143.332 4.49718 144.078 4.37282 144.827 4.38945C145.606 4.36568 146.381 4.49723 147.108 4.77641C147.673 4.99922 148.15 5.39806 148.47 5.91373C148.787 6.47717 148.943 7.11669 148.922 7.7628V15.098H147.314L147.183 13.1267C146.867 13.8488 146.323 14.4469 145.633 14.8289C144.991 15.1472 144.282 15.3089 143.566 15.3006M144.135 13.95C144.494 13.9487 144.849 13.8833 145.185 13.757C145.531 13.6309 145.856 13.4546 146.15 13.2339C146.425 13.0309 146.66 12.7796 146.845 12.4921C147.011 12.2397 147.104 11.9463 147.115 11.6442V9.84448L145.55 9.87449C144.874 9.87266 144.2 9.95475 143.544 10.1189C143.079 10.2241 142.657 10.4687 142.334 10.8199C142.055 11.1749 141.912 11.6186 141.933 12.0698C141.92 12.332 141.969 12.5935 142.076 12.8333C142.182 13.0731 142.344 13.2845 142.547 13.4504C143.003 13.7978 143.566 13.9742 144.138 13.9489" fill="white"/>
<path d="M151.689 15.0972V4.59234H153.511V6.11662C153.697 5.80354 153.936 5.52502 154.217 5.29338C154.541 5.02255 154.911 4.81263 155.31 4.67381C155.788 4.51031 156.292 4.43125 156.798 4.44013C157.431 4.43334 158.057 4.5685 158.632 4.83567C159.193 5.10252 159.661 5.53298 159.974 6.07052C160.333 6.7315 160.506 7.47763 160.475 8.22938V15.0972H158.595V8.41161C158.622 8.07973 158.579 7.7459 158.468 7.43191C158.357 7.11792 158.181 6.83082 157.952 6.58934C157.492 6.18306 156.894 5.97027 156.281 5.99549C155.827 5.99177 155.375 6.06908 154.948 6.22381C154.558 6.36072 154.211 6.59896 153.943 6.91413C153.679 7.24322 153.542 7.65645 153.557 8.07824V15.0983L151.689 15.0972Z" fill="white"/>
<path d="M77.5361 19.2969H79.4162V33.9876H77.7398L69.8557 22.4055V33.9876H67.9756V19.2969H69.7743L77.5361 30.7172V19.2969Z" fill="white"/>
<path d="M85.5413 34.1946C84.9233 34.2065 84.3101 34.0833 83.7447 33.8334C83.2443 33.6117 82.8187 33.2498 82.5195 32.7915C82.1274 32.1056 81.9904 31.3032 82.1326 30.5261C82.2748 29.749 82.6871 29.0471 83.2967 28.5445C84.4883 27.8783 85.8436 27.5614 87.207 27.6302L89.0883 27.5798V26.7566C89.1025 26.4755 89.0582 26.1946 88.9584 25.9315C88.8586 25.6684 88.7054 25.4289 88.5084 25.228C88.0061 24.812 87.3607 24.6095 86.7107 24.6642C86.1513 24.6593 85.6012 24.8076 85.12 25.0929C84.8845 25.2446 84.6836 25.4442 84.5305 25.6788C84.3773 25.9134 84.2754 26.1776 84.2314 26.4543H82.5753C82.585 25.8356 82.7845 25.2349 83.1469 24.7333C83.5092 24.2318 84.0169 23.8536 84.6012 23.6501C85.3056 23.3922 86.0519 23.2683 86.8019 23.2846C87.58 23.2603 88.3551 23.3915 89.0818 23.6705C89.6469 23.893 90.1249 24.2923 90.4443 24.8089C90.7615 25.3718 90.918 26.0111 90.8966 26.6569V33.9931H89.2887L89.158 32.0219C88.841 32.7433 88.2966 33.3411 87.6079 33.7241C86.9652 34.0424 86.2563 34.2043 85.5391 34.1968M86.1094 32.8451C86.4683 32.8438 86.824 32.7785 87.1599 32.6521C87.5052 32.5257 87.8303 32.3495 88.1246 32.129C88.3997 31.9254 88.6358 31.6738 88.8214 31.3862C88.9866 31.1333 89.0796 30.8402 89.0904 30.5383V28.7353L87.5254 28.7653C86.8491 28.7639 86.1752 28.8457 85.5188 29.0087C85.0536 29.1141 84.6318 29.359 84.3096 29.7108C84.0298 30.0655 83.8875 30.5093 83.9087 30.9606C83.8959 31.2229 83.945 31.4845 84.0518 31.7243C84.1587 31.9641 84.3205 32.1755 84.524 32.3413C84.979 32.6888 85.5417 32.8653 86.1137 32.8397" fill="white"/>
<path d="M98.5459 24.8535H96.178V31.3858C96.1634 31.6638 96.2031 31.942 96.2948 32.2048C96.3303 32.287 96.3848 32.3597 96.4537 32.4169C96.5226 32.4741 96.6041 32.5142 96.6914 32.5339C96.9432 32.588 97.2005 32.6121 97.4579 32.6057H98.6048V33.8652C98.4148 33.9257 98.219 33.9666 98.0206 33.9874C97.6983 34.0247 97.3739 34.0415 97.0495 34.0378C96.4725 34.0659 95.8965 33.9652 95.3633 33.743C94.9839 33.5677 94.6846 33.2557 94.5251 32.8694C94.3545 32.4151 94.2737 31.932 94.2871 31.4469V24.8535H92.5828V23.4814H94.3407L94.7963 20.4243H96.178V23.475H98.5459V24.8535Z" fill="white"/>
<path d="M103.118 21.2575H101.197V19.3066H103.118V21.2575ZM103.077 33.9877H101.255V23.4829H103.077V33.9877Z" fill="white"/>
<path d="M110.351 34.1943C109.464 34.2144 108.587 33.9988 107.811 33.5693C107.075 33.1407 106.487 32.4989 106.124 31.7289C105.699 30.8028 105.494 29.791 105.525 28.7725C105.504 27.7818 105.694 26.798 106.084 25.8869C106.425 25.0941 106.997 24.422 107.725 23.9574C108.509 23.517 109.392 23.2815 110.291 23.2727C111.19 23.2639 112.077 23.4821 112.87 23.907C113.6 24.3461 114.179 24.996 114.531 25.7711C114.951 26.7147 115.152 27.7405 115.121 28.7725C115.141 29.7418 114.956 30.7043 114.578 31.597C114.242 32.3776 113.683 33.0409 112.97 33.5029C112.18 33.9818 111.268 34.2199 110.345 34.1879M110.345 32.7043C110.914 32.723 111.474 32.5552 111.938 32.2262C112.396 31.8773 112.739 31.4 112.924 30.8552C113.162 30.1733 113.277 29.4541 113.261 28.7318C113.271 28.0447 113.171 27.3604 112.965 26.7047C112.797 26.1477 112.47 25.6517 112.025 25.2769C111.545 24.9088 110.949 24.7221 110.345 24.7495C109.77 24.7307 109.204 24.8959 108.729 25.2212C108.266 25.5664 107.918 26.0425 107.728 26.5879C107.486 27.2762 107.371 28.0025 107.388 28.7318C107.379 29.4145 107.482 30.0942 107.693 30.7438C107.866 31.3034 108.199 31.8007 108.649 32.1758C109.134 32.5457 109.735 32.7327 110.345 32.7043Z" fill="white"/>
<path d="M117.391 33.9874V23.4826H119.214V25.0058C119.401 24.6937 119.64 24.4157 119.92 24.1836C120.245 23.9124 120.617 23.7021 121.017 23.563C121.495 23.3995 121.999 23.3204 122.504 23.3293C123.138 23.3229 123.764 23.4584 124.339 23.7259C124.9 23.9928 125.368 24.4232 125.681 24.9608C126.04 25.6217 126.214 26.3678 126.182 27.1196V33.9874H124.303V27.3018C124.343 26.9836 124.312 26.6605 124.211 26.3559C124.111 26.0514 123.943 25.7731 123.722 25.5415C123.5 25.3099 123.229 25.1307 122.929 25.0171C122.629 24.9034 122.307 24.8582 121.988 24.8847C121.534 24.8811 121.082 24.9584 120.655 25.113C120.265 25.2499 119.918 25.4881 119.65 25.8033C119.386 26.1322 119.249 26.5457 119.265 26.9674V33.9874H117.391Z" fill="white"/>
<path d="M131.788 34.1946C131.17 34.2064 130.556 34.0831 129.99 33.8334C129.49 33.6117 129.064 33.2498 128.766 32.7915C128.373 32.1058 128.235 31.3032 128.377 30.5258C128.52 29.7485 128.932 29.0466 129.543 28.5445C130.734 27.8781 132.09 27.5612 133.453 27.6301L135.333 27.5798V26.7565C135.348 26.4756 135.304 26.1947 135.204 25.9316C135.104 25.6685 134.951 25.429 134.754 25.228C134.252 24.812 133.606 24.6096 132.956 24.6641C132.397 24.6594 131.847 24.8077 131.366 25.0929C131.13 25.2444 130.929 25.444 130.776 25.6786C130.623 25.9132 130.521 26.1775 130.477 26.4542H128.821C128.831 25.8353 129.03 25.2342 129.393 24.7325C129.755 24.2308 130.263 23.8529 130.848 23.6501C131.552 23.3922 132.298 23.2682 133.047 23.2846C133.826 23.2604 134.601 23.3916 135.329 23.6705C135.893 23.8933 136.37 24.2926 136.689 24.8088C137.007 25.3716 137.164 26.011 137.142 26.6568V33.9931H135.534L135.403 32.0218C135.087 32.7441 134.543 33.3423 133.853 33.724C133.211 34.0421 132.503 34.2041 131.786 34.1968M132.354 32.8451C132.714 32.8439 133.07 32.7785 133.406 32.6521C133.751 32.5257 134.076 32.3495 134.371 32.129C134.646 31.926 134.882 31.6742 135.066 31.3862C135.233 31.1338 135.326 30.8403 135.335 30.5383V28.7353L133.77 28.7653C133.094 28.7639 132.421 28.8457 131.765 29.0086C131.299 29.1135 130.877 29.3586 130.556 29.7108C130.276 30.0654 130.133 30.5092 130.154 30.9606C130.141 31.2228 130.19 31.4843 130.297 31.7241C130.404 31.9639 130.566 32.1753 130.769 32.3413C131.224 32.6885 131.787 32.8649 132.359 32.8397" fill="white"/>
<path d="M142.638 34.1196C142.168 34.137 141.699 34.0575 141.261 33.8859C140.941 33.7526 140.664 33.5347 140.458 33.2556C140.269 32.9832 140.141 32.6731 140.083 32.3466C140.018 31.9966 139.986 31.6414 139.986 31.2854V18.8896H141.836V31.1021C141.805 31.5217 141.914 31.9396 142.145 32.2909C142.25 32.4224 142.381 32.5295 142.531 32.6049C142.681 32.6803 142.846 32.722 143.014 32.7271L143.583 32.7379V33.9566C143.423 34.0056 143.26 34.0446 143.095 34.0735C142.945 34.1025 142.792 34.118 142.638 34.1196Z" fill="white"/>
<path d="M78.7152 47.7969C78.7442 48.7852 78.553 49.7676 78.1557 50.6729C77.793 51.4484 77.1803 52.0796 76.4159 52.4652C75.4551 52.9119 74.4015 53.1228 73.3427 53.0804C72.2756 53.1247 71.2138 52.9084 70.2491 52.4501C69.4787 52.0498 68.8691 51.397 68.5223 50.6011C68.1332 49.6496 67.9481 48.6271 67.9788 47.5997V38.186H69.9276V47.8891C69.8904 48.3694 69.9496 48.8522 70.1016 49.3093C70.2537 49.7663 70.4955 50.1884 70.813 50.5507C71.1535 50.8606 71.5531 51.0985 71.9878 51.2503C72.4225 51.402 72.8833 51.4645 73.3427 51.434C73.9919 51.4527 74.6366 51.3206 75.2261 51.0481C75.7396 50.7969 76.1573 50.3852 76.4159 49.8754C76.7103 49.2558 76.8515 48.5746 76.8275 47.8891V38.186H78.7174L78.7152 47.7969Z" fill="white"/>
<path d="M81.454 52.8781V42.3732H83.2762V43.8964C83.4635 43.5843 83.7024 43.3063 83.9827 43.0742C84.3079 42.8034 84.6794 42.5935 85.0792 42.4546C85.5581 42.2906 86.062 42.2116 86.5681 42.221C87.201 42.2142 87.8274 42.3494 88.4011 42.6165C88.9628 42.8832 89.431 43.3132 89.7443 43.8503C90.1036 44.5117 90.277 45.2581 90.2459 46.0102V52.8781H88.3647V46.1935C88.4049 45.8752 88.3735 45.5519 88.2728 45.2472C88.1721 44.9425 88.0047 44.6641 87.7827 44.4324C87.5607 44.2007 87.2898 44.0214 86.9898 43.9078C86.6897 43.7941 86.368 43.7488 86.0483 43.7753C85.5947 43.7712 85.1442 43.8485 84.718 44.0036C84.3273 44.1405 83.9802 44.3791 83.7125 44.695C83.4481 45.0235 83.311 45.4365 83.3266 45.858V52.8781H81.454Z" fill="white"/>
<path d="M94.9903 40.1477H93.0694V38.1968H94.9903V40.1477ZM94.9496 52.8779H93.1273V42.373H94.9496V52.8779Z" fill="white"/>
<path d="M106.256 42.373L102.468 52.8779H100.76L96.9604 42.373H98.7291L101.523 50.5208H101.695L104.499 42.373H106.256Z" fill="white"/>
<path d="M109.03 48.0621C109.021 48.6788 109.133 49.2913 109.359 49.8651C109.564 50.4071 109.936 50.87 110.421 51.187C110.906 51.5039 111.479 51.6585 112.058 51.6284C112.668 51.6444 113.27 51.4816 113.79 51.16C114.027 51.0086 114.232 50.811 114.392 50.579C114.551 50.347 114.663 50.0853 114.719 49.8094H116.497C116.388 50.4779 116.091 51.1014 115.64 51.607C115.201 52.0935 114.655 52.4709 114.045 52.7089C113.424 52.9561 112.762 53.0823 112.094 53.0809C111.189 53.0994 110.295 52.8775 109.503 52.4377C108.755 52.0069 108.148 51.3678 107.756 50.5983C107.314 49.706 107.097 48.7189 107.124 47.7234C107.104 46.725 107.298 45.7338 107.695 44.8174C108.043 44.0205 108.617 43.3428 109.346 42.8676C110.121 42.4189 110.999 42.1776 111.895 42.1669C112.791 42.1562 113.675 42.3764 114.461 42.8065C115.149 43.238 115.693 43.866 116.02 44.6095C116.396 45.4794 116.579 46.4203 116.556 47.3675V48.0589L109.03 48.0621ZM109.04 46.7919H114.749C114.758 46.2332 114.654 45.6784 114.445 45.1604C114.255 44.6941 113.932 44.2946 113.515 44.0124C113.047 43.7174 112.5 43.5709 111.946 43.5922C111.366 43.5686 110.794 43.7341 110.316 44.0638C109.891 44.3723 109.557 44.7902 109.351 45.273C109.139 45.751 109.033 46.2692 109.04 46.7919Z" fill="white"/>
<path d="M118.925 52.878V42.3731H120.713V44.3948C120.867 43.9311 121.121 43.5065 121.455 43.1502C121.762 42.829 122.134 42.5778 122.547 42.4138C122.953 42.2519 123.385 42.1689 123.822 42.1694C123.975 42.1696 124.128 42.1796 124.28 42.1994C124.4 42.2131 124.517 42.2495 124.625 42.3066V44.1289C124.501 44.0753 124.368 44.0427 124.233 44.0324C124.074 44.0164 123.94 44.0078 123.833 44.0078C123.438 43.9786 123.041 44.0039 122.653 44.0828C122.309 44.1527 121.981 44.2889 121.689 44.4837C121.411 44.6749 121.186 44.9329 121.034 45.2341C120.865 45.5839 120.783 45.9692 120.795 46.3575V52.878H118.925Z" fill="white"/>
<path d="M130.252 53.0809C129.559 53.0871 128.869 52.9717 128.216 52.74C127.611 52.5285 127.073 52.1605 126.657 51.6735C126.224 51.1433 125.952 50.4995 125.875 49.819H127.581C127.661 50.2015 127.838 50.5571 128.095 50.8513C128.349 51.1302 128.668 51.3425 129.024 51.4698C129.415 51.6119 129.828 51.6824 130.244 51.6778C130.838 51.7049 131.428 51.5681 131.95 51.2822C132.16 51.1582 132.331 50.9789 132.446 50.7639C132.561 50.549 132.614 50.3066 132.6 50.0634C132.608 49.8935 132.582 49.7236 132.523 49.5639C132.465 49.4041 132.375 49.2576 132.259 49.133C131.965 48.8652 131.601 48.6873 131.209 48.6206L129.034 48.0847C128.291 47.9305 127.595 47.6032 127.002 47.1296C126.746 46.9032 126.544 46.6216 126.412 46.306C126.28 45.9904 126.221 45.6489 126.24 45.3073C126.222 44.7343 126.374 44.1687 126.677 43.6823C127.006 43.1892 127.472 42.804 128.018 42.575C128.723 42.2827 129.481 42.1439 130.244 42.1676C131.222 42.1217 132.188 42.3907 133.002 42.9351C133.351 43.1952 133.633 43.5355 133.823 43.9273C134.013 44.3191 134.106 44.7509 134.094 45.1862H132.438C132.412 44.9519 132.338 44.7254 132.222 44.5203C132.106 44.3153 131.949 44.1359 131.762 43.9931C131.314 43.6786 130.773 43.5228 130.227 43.5504C129.653 43.5233 129.084 43.6617 128.587 43.9492C128.38 44.0811 128.212 44.2662 128.101 44.4851C127.99 44.7041 127.94 44.9488 127.956 45.1937C127.951 45.3659 127.989 45.5367 128.066 45.6904C128.144 45.844 128.26 45.9755 128.402 46.0727C128.806 46.3311 129.254 46.5128 129.724 46.6086L131.826 47.1371C132.253 47.24 132.66 47.4116 133.032 47.6452C133.321 47.8326 133.576 48.07 133.782 48.3462C133.961 48.5901 134.095 48.8637 134.178 49.1545C134.253 49.4169 134.293 49.6885 134.295 49.9616C134.31 50.5521 134.142 51.1328 133.812 51.6231C133.464 52.1056 132.984 52.4777 132.43 52.695C131.737 52.9666 130.996 53.0963 130.251 53.0766" fill="white"/>
<path d="M138.787 40.1477H136.873V38.1968H138.792L138.787 40.1477ZM138.747 52.8779H136.925V42.373H138.747V52.8779Z" fill="white"/>
<path d="M147.118 43.7441H144.75V50.2829C144.735 50.5606 144.775 50.8386 144.868 51.1008C144.903 51.1831 144.957 51.2559 145.026 51.3133C145.095 51.3706 145.176 51.4109 145.264 51.4309C145.516 51.4841 145.773 51.5078 146.031 51.5017H147.178V52.7612C146.988 52.8217 146.793 52.8626 146.595 52.8834C146.273 52.9207 145.948 52.9375 145.624 52.9338C145.047 52.9615 144.471 52.8612 143.938 52.6401C143.558 52.4643 143.259 52.152 143.099 51.7654C142.929 51.3114 142.848 50.8287 142.861 50.344V43.7441H141.16V42.3731H142.918L143.374 39.3149H144.755V42.3624H147.123L147.118 43.7441Z" fill="white"/>
<path d="M150.724 56.2298C150.174 56.2409 149.627 56.1515 149.109 55.9661V54.7474L150.181 54.7667C150.508 54.7868 150.836 54.7593 151.156 54.6852C151.378 54.6346 151.589 54.5418 151.777 54.4118C151.921 54.3081 152.043 54.177 152.137 54.026C152.215 53.895 152.285 53.7589 152.345 53.6186L152.71 52.6239L148.607 42.373H150.505L153.604 50.48L156.683 42.373H158.522L154.092 53.6701C153.879 54.236 153.572 54.7616 153.183 55.2244C152.881 55.5741 152.497 55.843 152.065 56.0069C151.636 56.159 151.184 56.2345 150.729 56.2298" fill="white"/>
<path d="M44.1574 1.51145C44.2507 3.49237 44.5412 10.3345 44.5412 18.7062C44.5412 28.9056 43.8734 34.3445 42.0757 38.7716C41.301 40.7714 40.0798 42.5679 38.5052 44.024C36.4897 45.7747 34.2863 47.2965 31.9353 48.5615C30.0217 49.7307 28.0048 50.7217 25.91 51.5221C24.9943 51.8793 24.0222 52.0705 23.0394 52.087C22.0566 52.0706 21.0846 51.8793 20.1688 51.5221C18.0736 50.7217 16.0564 49.7307 14.1424 48.5615C11.7918 47.2966 9.58872 45.7748 7.57367 44.024C5.99902 42.5682 4.77807 40.7716 4.00416 38.7716C2.20654 34.3445 1.53873 28.9099 1.53873 18.7062C1.53873 10.3388 1.82923 3.50523 1.92248 1.51681L44.1574 1.51145ZM1.43261 0.49419C1.31122 0.48861 1.19184 0.526631 1.09603 0.601382C1.04851 0.642866 1.0098 0.693459 0.982183 0.750167C0.954565 0.806876 0.938602 0.868549 0.93524 0.931535C0.930952 1.01407 0.523621 8.7641 0.523621 18.7062C0.523621 29.0492 1.21287 34.5932 3.06516 39.1543C4.94317 43.7828 7.8438 46.0682 13.6322 49.4447C19.1751 52.6723 21.4937 53.1086 23.0405 53.1086C24.5873 53.1086 26.9059 52.6723 32.4466 49.4447C38.235 46.0714 41.1367 43.786 43.0169 39.1543C44.8681 34.5932 45.5563 29.0514 45.5563 18.7062C45.5563 8.7641 45.149 1.01943 45.1457 0.936895C45.1427 0.873741 45.1267 0.81188 45.0989 0.755107C45.0711 0.698334 45.0319 0.647846 44.9839 0.606742C44.8864 0.530418 44.7644 0.492301 44.6409 0.499549L1.43261 0.49419Z" fill="#BF872B"/>
<path d="M36.0548 13.0141L35.5681 11.6538L35.0868 12.9916L33.6494 13.0484L34.791 13.9317L34.3836 15.3037L35.5638 14.4901L36.7547 15.3037L36.3463 13.9166L37.4868 13.0484L36.0548 13.0141Z" fill="#BF872B"/>
<path d="M34.374 20.7291L35.4652 21.7367L35.3569 20.2553L36.8255 20.0313L35.6003 19.192L36.3399 17.9035L34.9196 18.3387L34.374 16.957L33.8284 18.3387L32.4081 17.9035L33.1488 19.192L31.9225 20.0313L33.391 20.2553L33.2828 21.7367L34.374 20.7291Z" fill="#BF872B"/>
<path d="M40.2985 12.5792L41.3897 13.5868L41.2814 12.1054L42.75 11.8814L41.5248 11.0421L42.2644 9.75364L40.8441 10.1888L40.2985 8.80713L39.7529 10.1888L38.3326 9.75364L39.0733 11.0421L37.847 11.8814L39.3155 12.1054L39.2073 13.5868L40.2985 12.5792Z" fill="#BF872B"/>
<path d="M34.9978 7.02211L36.089 8.02972L35.9808 6.54831L37.4493 6.32428L36.2241 5.48496L36.9637 4.19651L35.5434 4.63171L34.9978 3.25L34.4522 4.63171L33.0319 4.19651L33.7726 5.48496L32.5463 6.32428L34.0149 6.54831L33.9066 8.02972L34.9978 7.02211Z" fill="#BF872B"/>
<path d="M28.7367 11.837L29.8279 12.8457L29.7197 11.3633L31.1882 11.1392L29.963 10.2999L30.7026 9.01252L29.2823 9.44665L28.7367 8.06494L28.1911 9.44665L26.7708 9.01252L27.5115 10.2999L26.2852 11.1392L27.7538 11.3633L27.6455 12.8457L28.7367 11.837Z" fill="#BF872B"/>
<path d="M34.4286 24.2533C28.4258 21.3805 24.3836 19.3428 22.9279 19.3428C21.4722 19.3428 17.668 21.3794 11.6609 24.2533C5.65384 27.1271 3.60217 27.7424 3.60217 28.9987C3.60217 30.255 5.07714 29.6579 5.52521 29.5228C5.97327 29.3878 21.3029 24.4291 22.9268 24.4291C24.5508 24.4291 40.1141 29.3889 40.5632 29.5228C41.0124 29.6568 42.4863 30.256 42.4863 28.9987C42.4863 27.7413 40.4357 27.1271 34.4286 24.2533Z" fill="#BF872B"/>
<path d="M37.8813 33.6435C35.2765 34.5182 33.2077 36.4241 30.3221 35.8806C27.7924 35.4047 25.6925 33.2201 23.033 33.2533C20.1249 33.2908 17.9296 35.7948 15.0761 36.0328C12.2709 36.2676 10.0884 33.9962 7.47401 33.4602C6.40189 33.2482 5.29198 33.338 4.26788 33.7196C4.45366 34.6355 4.6873 35.5411 4.96785 36.4326C5.78855 36.2266 6.64511 36.2079 7.47401 36.378C10.0884 36.9139 12.2709 39.18 15.0761 38.9506C17.9296 38.7126 20.1249 36.2086 23.033 36.1711C25.6892 36.1379 27.7891 38.3224 30.3221 38.7984C33.2077 39.3418 35.2765 37.436 37.8813 36.5613C38.9121 36.2107 40.0237 36.1734 41.0757 36.4541C41.3556 35.5643 41.5889 34.6605 41.7746 33.7464C40.5281 33.2604 39.151 33.2251 37.8813 33.6467" fill="#BF872B"/>
<path d="M37.8813 39.4799C35.2765 40.3546 33.2077 42.2594 30.3221 41.717C27.7923 41.2411 25.6924 39.0555 23.033 39.0898C20.1248 39.1262 17.9295 41.6313 15.0761 41.8693C12.2708 42.104 10.0884 39.8326 7.47397 39.2966C7.00815 39.2004 6.53189 39.1643 6.05688 39.1894C6.63111 40.3512 7.38541 41.4148 8.29185 42.3409C8.31844 42.3696 8.35004 42.3932 8.38511 42.4106C8.67989 42.5521 10.1977 43.2885 10.9577 43.669C12.2011 44.4193 13.6293 44.8073 15.0814 44.7892C17.9349 44.5512 20.1302 42.0461 23.0383 42.0097C25.6946 41.9765 27.7945 44.161 30.3274 44.637C31.9638 44.8495 33.6242 44.508 35.0439 43.6669C35.805 43.3014 37.4311 42.4942 37.7355 42.343C37.7702 42.3256 37.8014 42.302 37.8277 42.2734C38.6999 41.3626 39.4302 40.3259 39.994 39.198C39.2794 39.1528 38.5628 39.2493 37.8856 39.4821" fill="#BF872B"/>
<path d="M15.8715 47.5808C17.0324 48.2347 18.0625 48.7675 18.9801 49.1887C20.2055 48.425 21.5951 47.9639 23.0341 47.8435C24.4829 47.9368 25.8853 48.3919 27.1128 49.1673C28.0378 48.7385 29.0787 48.2026 30.2503 47.538C27.7505 47.0352 25.6689 44.8924 23.0341 44.9257C20.3993 44.9589 18.3519 47.0159 15.8693 47.5808" fill="#BF872B"/>
<path d="M32.4349 30.0376C29.3563 29.0976 27.2521 28.4833 25.8136 28.0824C24.4447 27.7008 23.8048 27.5561 23.3814 27.4489C23.256 27.4168 23.0448 27.3771 22.973 27.3643C22.8786 27.3814 22.7489 27.4082 22.5721 27.4489C22.2173 27.5304 21.6706 27.6633 20.8302 27.8991C19.4045 28.2915 17.1331 28.9561 13.5175 30.0762C12.3577 30.4364 11.0585 30.8427 9.60498 31.3025C11.3801 32.1483 13.0823 33.2845 15.1104 33.1151C17.9639 32.8772 20.1592 30.3732 23.0673 30.3356C25.7235 30.3024 27.8234 32.487 30.3564 32.9629C32.7071 33.4056 34.5155 32.2233 36.5135 31.2961C34.9935 30.8223 33.6418 30.4053 32.4402 30.0376" fill="#BF872B"/>
</g>
</g>
</g>
<defs>
<clipPath id="clip0_1_435">
<rect width="160" height="56.23" fill="white" transform="translate(0.5)"/>
</clipPath>
<clipPath id="clip1_1_435">
<rect width="160" height="56.23" fill="white" transform="translate(0.5)"/>
</clipPath>
<clipPath id="clip2_1_435">
<rect width="159.953" height="56.23" fill="white" transform="translate(0.523621)"/>
</clipPath>
</defs>
</svg>
