<svg width="65" height="67" viewBox="0 0 65 67" fill="none" xmlns="http://www.w3.org/2000/svg">
<g clip-path="url(#clip0_1_172)">
<g clip-path="url(#clip1_1_172)">
<g clip-path="url(#clip2_1_172)">
<path d="M32.5 66.5541C50.1731 66.5541 64.5 52.0391 64.5 34.1339C64.5 16.2287 50.1731 1.71362 32.5 1.71362C14.8269 1.71362 0.5 16.2287 0.5 34.1339C0.5 52.0391 14.8269 66.5541 32.5 66.5541Z" fill="white"/>
<path d="M30.1056 20.4508L31.6911 18.8444C32.3625 18.1642 33.4481 18.1642 34.1123 18.8444L47.9965 32.9036C48.6679 33.5838 48.6679 34.6837 47.9965 35.3566L34.1123 49.4231C33.441 50.1032 32.3554 50.1032 31.6911 49.4231L30.1056 47.8167C29.4271 47.1293 29.4414 46.0077 30.1342 45.3348L38.7404 37.028H18.2141C17.2642 37.028 16.5 36.2538 16.5 35.2915V32.976C16.5 32.0136 17.2642 31.2394 18.2141 31.2394H38.7404L30.1342 22.9326C29.4343 22.2597 29.42 21.1381 30.1056 20.4508Z" fill="#BE830E"/>
</g>
</g>
</g>
<defs>
<clipPath id="clip0_1_172">
<rect width="64" height="65.97" fill="white" transform="translate(0.5 0.859863)"/>
</clipPath>
<clipPath id="clip1_1_172">
<rect width="64" height="65.97" fill="white" transform="translate(0.5 0.859863)"/>
</clipPath>
<clipPath id="clip2_1_172">
<rect width="64" height="65.9692" fill="white" transform="translate(0.5 0.860352)"/>
</clipPath>
</defs>
</svg>
