<svg width="21" height="16" viewBox="0 0 21 16" fill="none" xmlns="http://www.w3.org/2000/svg">
<g clip-path="url(#clip0_1_304)">
<g clip-path="url(#clip1_1_304)">
<g clip-path="url(#clip2_1_304)">
<path d="M6.39101 10.7153L6.05096 6.18128C6.01136 5.85227 5.84952 5.55018 5.59755 5.33495C5.34557 5.11972 5.02189 5.0071 4.69074 5.01943H2.63341C2.30193 5.00577 1.97753 5.11792 1.72527 5.33339C1.47301 5.54887 1.31152 5.85174 1.27319 6.18128L0.933136 10.7153H2.00998L2.27635 14.1159C2.31391 14.3456 2.43578 14.5531 2.61815 14.6977C2.80052 14.8423 3.03028 14.9138 3.26251 14.898H4.05597C4.28572 14.9143 4.5134 14.8452 4.69538 14.7041C4.87736 14.5629 5.00083 14.3595 5.04213 14.1329L5.31417 10.7323L6.39101 10.7153Z" stroke="#BF872B" stroke-width="0.850136" stroke-linecap="round" stroke-linejoin="round"/>
<path d="M5.04214 2.57101C5.04325 2.84203 4.96404 3.10731 4.81451 3.33335C4.66498 3.55939 4.45183 3.73606 4.20197 3.84107C3.95212 3.94607 3.67675 3.97469 3.41064 3.92332C3.14453 3.87196 2.8996 3.7429 2.70678 3.55245C2.51395 3.36199 2.38188 3.11868 2.32722 2.85322C2.27257 2.58777 2.29778 2.31207 2.39968 2.06093C2.50159 1.8098 2.67561 1.59448 2.89979 1.44217C3.12396 1.28985 3.38823 1.20737 3.65925 1.20513C3.83984 1.20363 4.01895 1.23782 4.18629 1.30572C4.35364 1.37362 4.50592 1.47391 4.63441 1.60082C4.7629 1.72773 4.86506 1.87876 4.93503 2.04525C5.005 2.21174 5.0414 2.39042 5.04214 2.57101Z" stroke="#BF872B" stroke-width="0.850136" stroke-linecap="round" stroke-linejoin="round"/>
<path d="M13.2261 10.7153L12.886 6.18126C12.849 5.85118 12.6879 5.54752 12.4353 5.33179C12.1828 5.11606 11.8576 5.00439 11.5258 5.01941H9.46849C9.13734 5.00708 8.81366 5.1197 8.56168 5.33493C8.30971 5.55016 8.14787 5.85225 8.10827 6.18126L7.76822 10.7153H8.84506L9.11143 14.1159C9.14899 14.3456 9.27086 14.553 9.45323 14.6977C9.6356 14.8423 9.86536 14.9137 10.0976 14.898H10.8911C11.1239 14.9139 11.3544 14.8427 11.5377 14.6981C11.721 14.5536 11.844 14.346 11.8829 14.1159L12.1493 10.7153H13.2261Z" stroke="#BF872B" stroke-width="0.850136" stroke-linecap="round" stroke-linejoin="round"/>
<path d="M11.8715 2.57096C11.8727 2.84247 11.7932 3.1082 11.6432 3.3345C11.4931 3.56079 11.2793 3.73747 11.0288 3.84215C10.7783 3.94683 10.5023 3.9748 10.2359 3.92252C9.96948 3.87024 9.72456 3.74006 9.53218 3.54847C9.3398 3.35688 9.2086 3.11251 9.15522 2.8463C9.10184 2.58009 9.12867 2.30403 9.23231 2.05308C9.33595 1.80213 9.51174 1.58759 9.73741 1.43663C9.96308 1.28567 10.2285 1.20508 10.5 1.20508C10.8628 1.20508 11.2108 1.3488 11.4678 1.60479C11.7249 1.86078 11.87 2.20819 11.8715 2.57096Z" stroke="#BF872B" stroke-width="0.850136" stroke-linecap="round" stroke-linejoin="round"/>
<path d="M20.0669 10.7153L19.7268 6.18128C19.6885 5.85174 19.527 5.54887 19.2748 5.33339C19.0225 5.11792 18.6981 5.00577 18.3666 5.01943H16.3093C15.9781 5.0071 15.6544 5.11972 15.4025 5.33495C15.1505 5.55018 14.9887 5.85227 14.9491 6.18128L14.609 10.7153H15.6858L15.9522 14.1159C15.986 14.3497 16.1071 14.5622 16.2911 14.7104C16.4751 14.8587 16.7084 14.9318 16.9441 14.915H17.7375C17.9704 14.9309 18.2009 14.8597 18.3842 14.7151C18.5675 14.5706 18.6905 14.3631 18.7293 14.1329L18.99 10.7323L20.0669 10.7153Z" stroke="#BF872B" stroke-width="0.850136" stroke-linecap="round" stroke-linejoin="round"/>
<path d="M18.7067 2.57096C18.7067 2.84111 18.6265 3.10519 18.4765 3.32981C18.3264 3.55443 18.1131 3.7295 17.8635 3.83288C17.6139 3.93626 17.3393 3.96331 17.0743 3.9106C16.8093 3.8579 16.566 3.72781 16.3749 3.53679C16.1839 3.34577 16.0538 3.10239 16.0011 2.83743C15.9484 2.57248 15.9755 2.29784 16.0789 2.04826C16.1822 1.79868 16.3573 1.58536 16.5819 1.43527C16.8065 1.28519 17.0706 1.20508 17.3408 1.20508C17.703 1.20508 18.0504 1.34898 18.3066 1.60514C18.5628 1.86129 18.7067 2.20871 18.7067 2.57096Z" stroke="#BF872B" stroke-width="0.850136" stroke-linecap="round" stroke-linejoin="round"/>
</g>
</g>
</g>
<defs>
<clipPath id="clip0_1_304">
<rect width="20" height="14.56" fill="white" transform="translate(0.5 0.780029)"/>
</clipPath>
<clipPath id="clip1_1_304">
<rect width="20" height="14.56" fill="white" transform="translate(0.5 0.780029)"/>
</clipPath>
<clipPath id="clip2_1_304">
<rect width="19.9839" height="14.56" fill="white" transform="translate(0.508057 0.780029)"/>
</clipPath>
</defs>
</svg>
