<svg width="21" height="21" viewBox="0 0 21 21" fill="none" xmlns="http://www.w3.org/2000/svg">
<g clip-path="url(#clip0_1_318)">
<g clip-path="url(#clip1_1_318)">
<g clip-path="url(#clip2_1_318)">
<path d="M13.6524 16.6413H5.06749C4.00509 16.6413 2.98578 16.2213 2.23185 15.4728C1.47791 14.7243 1.05052 13.708 1.04288 12.6456V4.90767C1.04288 3.84028 1.4669 2.81661 2.22166 2.06184C2.97642 1.30708 4.0001 0.883063 5.06749 0.883063H15.9253C16.4544 0.882111 16.9785 0.985509 17.4676 1.18734C17.9568 1.38917 18.4013 1.68547 18.7758 2.05928C19.1502 2.4331 19.4473 2.87709 19.6501 3.36585C19.8528 3.85461 19.9571 4.37855 19.9571 4.90767V12.6456C19.9576 13.3258 19.7852 13.9949 19.456 14.59C19.1267 15.1852 18.6516 15.6868 18.0751 16.0477" stroke="#BF872B" stroke-width="1.08578" stroke-linecap="round" stroke-linejoin="round"/>
<path d="M18.0679 16.0261L19.9499 19.7974L13.6524 16.6414" stroke="#BF872B" stroke-width="1.08578" stroke-linecap="round" stroke-linejoin="round"/>
<path d="M4.82138 5.22607H16.0338" stroke="#BF872B" stroke-width="1.08578" stroke-linecap="round" stroke-linejoin="round"/>
<path d="M4.82138 8.76587H9.81595" stroke="#BF872B" stroke-width="1.08578" stroke-linecap="round" stroke-linejoin="round"/>
<path d="M4.82138 12.2114H12.1685" stroke="#BF872B" stroke-width="1.08578" stroke-linecap="round" stroke-linejoin="round"/>
</g>
</g>
</g>
<defs>
<clipPath id="clip0_1_318">
<rect width="20" height="20" fill="white" transform="translate(0.5 0.340088)"/>
</clipPath>
<clipPath id="clip1_1_318">
<rect width="20" height="20" fill="white" transform="translate(0.5 0.340088)"/>
</clipPath>
<clipPath id="clip2_1_318">
<rect width="20" height="20" fill="white" transform="translate(0.5 0.340088)"/>
</clipPath>
</defs>
</svg>
